<?xml version="1.0" standalone="no"?>
<!DOCTYPE svg PUBLIC "-//W3C//DTD SVG 1.1//EN" "http://www.w3.org/Graphics/SVG/1.1/DTD/svg11.dtd" >
<svg xmlns="http://www.w3.org/2000/svg" xmlns:xlink="http://www.w3.org/1999/xlink" version="1.1">
<metadata>
Created by FontForge 20170731 at Mon Jul 12 14:59:19 2021
 By Aleksey,,,
Copyright 2017-2021 Indian Type Foundry. All rights reserved.
</metadata>
<defs>
<font id="GeneralSans-Semibold" horiz-adv-x="2" >
  <font-face 
    font-family="General Sans Semibold"
    font-weight="600"
    font-stretch="normal"
    units-per-em="2048"
    panose-1="0 0 0 0 0 0 0 0 0 0"
    ascent="1638"
    descent="-410"
    x-height="1094"
    cap-height="1470"
    bbox="-1333 -471.056 3258 2054"
    underline-thickness="102"
    underline-position="-214"
    unicode-range="U+000D-FB02"
  />
<missing-glyph horiz-adv-x="364" 
 />
    <glyph glyph-name="fi" unicode="fi" horiz-adv-x="1341" 
d="M1257 1348q0 -73 -53 -120.5t-137 -47.5q-83 0 -135.5 47.5t-52.5 120.5q0 75 52.5 123.5t135.5 48.5q84 0 137 -48.5t53 -123.5zM510 0h-283v850h-219v244h219v59q0 164 88.5 252t257.5 88q99 0 177 -33v-225q-47 18 -109 18q-131 0 -131 -106v-53h287v-244h-287v-850z
M1212 0h-282v1094h282v-1094z" />
    <glyph glyph-name="fl" unicode="fl" horiz-adv-x="1343" 
d="M510 0h-283v850h-219v244h219v59q0 164 88.5 252t257.5 88q99 0 177 -33v-225q-47 18 -109 18q-131 0 -131 -106v-53h287v-244h-287v-850zM1214 0h-284v1470h284v-1470z" />
    <glyph glyph-name=".notdef" horiz-adv-x="364" 
 />
    <glyph glyph-name=".null" horiz-adv-x="0" 
 />
    <glyph glyph-name=".null" horiz-adv-x="0" 
 />
    <glyph glyph-name="nonmarkingreturn" horiz-adv-x="682" 
 />
    <glyph glyph-name="CR" unicode="&#xd;" horiz-adv-x="573" 
 />
    <glyph glyph-name="space" unicode=" " horiz-adv-x="542" 
 />
    <glyph glyph-name="exclam" unicode="!" horiz-adv-x="581" 
d="M397 442h-213l-73 1028h360zM489 176q0 -81 -56.5 -133.5t-141.5 -52.5t-141 52.5t-56 133.5q0 82 55.5 135.5t141.5 53.5q87 0 142.5 -53.5t55.5 -135.5z" />
    <glyph glyph-name="quotedbl" unicode="&#x22;" horiz-adv-x="1005" 
d="M416 928h-221l-17 542h256zM809 928h-221l-19 542h256z" />
    <glyph glyph-name="numbersign" unicode="#" horiz-adv-x="1351" 
d="M616 0l80 373h-168l-79 -373h-218l80 373h-168v211h209l47 219h-174v217h215l80 364h217l-80 -364h168l80 364h215l-80 -364h168v-217h-207l-49 -219h174v-211h-213l-82 -373h-215zM569 584h168l47 219h-168z" />
    <glyph glyph-name="dollar" unicode="$" horiz-adv-x="1257" 
d="M1182 424q0 -185 -124 -304t-341 -136v-166h-187v170q-202 26 -322 147.5t-134 310.5h284q3 -110 74 -172.5t197 -62.5q109 0 179.5 47t70.5 129q0 123 -177 162l-208 43q-81 18 -142.5 45t-114.5 71t-81.5 112t-28.5 157q0 165 111 280.5t292 141.5v172h187v-172
q191 -25 312.5 -145.5t133.5 -305.5h-284q-6 101 -73 163.5t-171 62.5q-100 0 -160.5 -48t-60.5 -127q0 -119 176 -155l207 -43q385 -82 385 -377z" />
    <glyph glyph-name="percent" unicode="%" horiz-adv-x="2248" 
d="M936 967q0 -117 -58 -215.5t-161.5 -156.5t-229.5 -58q-190 0 -319 125.5t-129 304.5q0 180 128.5 305t319.5 125q192 0 320.5 -125t128.5 -305zM827 0h-225l787 1384h225zM270 967q0 -109 62.5 -169.5t154.5 -60.5q93 0 155.5 60.5t62.5 169.5t-62.5 169t-155.5 60
q-92 0 -154.5 -60t-62.5 -169zM2212 412q0 -179 -129.5 -304.5t-321.5 -125.5q-190 0 -319 125.5t-129 304.5q0 180 128.5 305t319.5 125q192 0 321.5 -125t129.5 -305zM1544 412q0 -109 62.5 -168.5t154.5 -59.5q93 0 155 59.5t62 168.5q0 110 -62 169.5t-155 59.5
q-92 0 -154.5 -59.5t-62.5 -169.5z" />
    <glyph glyph-name="ampersand" unicode="&#x26;" horiz-adv-x="1380" 
d="M1047 0l-121 127q-120 -126 -320 -145h-59q-114 2 -206 35.5t-152 90.5t-94.5 130t-41.5 157v51q4 119 75 211t179 150q-75 117 -78 209q-3 41 7 94q28 126 138 207.5t271 87.5q42 0 62 -2q166 -12 266 -114.5t102 -258.5h-264q-7 73 -48.5 110.5t-103.5 37.5
q-18 0 -24 -4q-50 -6 -83.5 -43t-33.5 -97q0 -56 31 -104.5t102 -126.5q6 -6 18.5 -19.5t18.5 -19.5l215 -242q27 79 33 189h260q-4 -196 -111 -379l312 -332h-350zM324 449q0 -97 59 -162t166 -72h43q111 3 176 74l-276 305q-14 16 -41 43q-58 -26 -92.5 -74.5
t-34.5 -113.5z" />
    <glyph glyph-name="quotesingle" unicode="'" horiz-adv-x="612" 
d="M416 928h-221l-17 542h256z" />
    <glyph glyph-name="parenleft" unicode="(" horiz-adv-x="694" 
d="M651 -395h-282q-125 191 -192.5 434.5t-67.5 499.5q0 255 67.5 497.5t192.5 433.5h282q-123 -188 -186.5 -430t-63.5 -501q0 -261 63.5 -503.5t186.5 -430.5z" />
    <glyph glyph-name="parenright" unicode=")" horiz-adv-x="694" 
d="M328 -395h-285q125 188 188.5 430.5t63.5 503.5q0 260 -63.5 501.5t-188.5 429.5h285q125 -191 192.5 -433.5t67.5 -497.5q0 -256 -67.5 -499.5t-192.5 -434.5z" />
    <glyph glyph-name="asterisk" unicode="*" horiz-adv-x="1024" 
d="M512 889l-188 -244l-166 123l188 231l-283 91l60 190l291 -98l-13 288h222l-13 -288l291 98l60 -190l-283 -91l188 -231l-166 -123z" />
    <glyph glyph-name="plus" unicode="+" horiz-adv-x="1351" 
d="M809 197h-266v378h-379v246h379v379h266v-379h379v-246h-379v-378z" />
    <glyph glyph-name="comma" unicode="," horiz-adv-x="612" 
d="M506 111q0 -119 -67 -219t-173.5 -151t-218.5 -40v158q215 -18 268 176q-82 -21 -142 30t-60 132q0 78 52 128t130 50q100 0 155.5 -67.5t55.5 -196.5z" />
    <glyph glyph-name="hyphen" unicode="-" horiz-adv-x="706" 
d="M666 436h-625v254h625v-254z" />
    <glyph glyph-name="period" unicode="." horiz-adv-x="612" 
d="M498 182q0 -85 -53 -138.5t-138 -53.5t-138.5 53.5t-53.5 138.5q0 86 53.5 140.5t138.5 54.5t138 -54.5t53 -140.5z" />
    <glyph glyph-name="slash" unicode="/" horiz-adv-x="1034" 
d="M207 -395h-281l903 1865h281z" />
    <glyph glyph-name="zero" unicode="0" horiz-adv-x="1257" 
d="M1165 690q0 -343 -138.5 -526.5t-397.5 -183.5t-397 183.5t-138 526.5q0 344 139 529.5t396 185.5t396.5 -185.5t139.5 -529.5zM387 690q0 -224 61.5 -340.5t180.5 -116.5q118 0 180.5 117t62.5 340q0 224 -62.5 342.5t-180.5 118.5q-117 0 -179.5 -118.5t-62.5 -342.5z
" />
    <glyph glyph-name="one" unicode="1" horiz-adv-x="765" 
d="M586 0h-285v1139h-262v245h547v-1384z" />
    <glyph glyph-name="two" unicode="2" horiz-adv-x="1101" 
d="M1044 254v-254h-966v162l422 432q126 129 175.5 202t49.5 162q0 83 -54.5 138t-148.5 55q-98 0 -153.5 -57t-55.5 -162h-276q0 209 142.5 341t363.5 132q111 0 203.5 -34t151.5 -91.5t91.5 -130.5t32.5 -152q0 -91 -34 -172.5t-94 -155.5t-175 -190l-209 -225h534z" />
    <glyph glyph-name="three" unicode="3" horiz-adv-x="1179" 
d="M1104 412q0 -193 -147 -311.5t-384 -118.5q-225 0 -368.5 119t-143.5 307h277q6 -95 70.5 -148t169.5 -53q109 0 171 52t62 144t-71.5 142.5t-198.5 50.5h-150v225h133q104 0 165 49t61 134q0 82 -52 129t-141 47t-139.5 -52.5t-52.5 -142.5h-277q1 118 64.5 214.5
t174 151t244.5 54.5q215 0 342 -106t127 -275q0 -189 -206 -297q130 -42 200 -122t70 -193z" />
    <glyph glyph-name="four" unicode="4" horiz-adv-x="1200" 
d="M1143 272h-195v-272h-282v272h-658v211l713 901h227v-864h195v-248zM317 520h349v457z" />
    <glyph glyph-name="five" unicode="5" horiz-adv-x="1196" 
d="M1116 453q0 -91 -33.5 -174.5t-97 -151t-165.5 -107.5t-228 -40q-145 0 -263.5 56.5t-188 157.5t-74.5 228h284q12 -89 77 -139t163 -50q118 0 174.5 63t56.5 157q0 90 -60.5 154.5t-178.5 64.5q-172 0 -236 -140l-233 76l123 776h798v-254h-592l-45 -282q101 65 232 65
q119 0 214.5 -39t153.5 -104t88.5 -146.5t30.5 -170.5z" />
    <glyph glyph-name="six" unicode="6" horiz-adv-x="1175" 
d="M1124 461q0 -202 -151.5 -339.5t-386.5 -137.5q-115 0 -215 37t-169.5 99t-109 146t-39.5 176q0 126 40 222.5t140 216.5l418 503h322l-398 -485q154 17 279.5 -33.5t197.5 -157t72 -247.5zM350 453q0 -108 69 -170t171 -62q101 0 169 61.5t68 168.5q0 113 -67.5 174
t-169.5 61q-104 0 -172 -59t-68 -174z" />
    <glyph glyph-name="seven" unicode="7" horiz-adv-x="1017" 
d="M995 1219l-514 -1219h-305l502 1130h-655v254h972v-165z" />
    <glyph glyph-name="eight" unicode="8" horiz-adv-x="1218" 
d="M1143 401q0 -185 -147 -302t-384 -117q-241 0 -388.5 116.5t-147.5 302.5q0 109 64 190t171 128q-87 47 -137.5 120.5t-50.5 168.5q0 173 135.5 285t353.5 112q214 0 349 -112t135 -285q0 -95 -51 -168.5t-136 -120.5q106 -47 170 -128t64 -190zM416 997q0 -78 52.5 -124
t143.5 -46q88 0 139.5 46t51.5 124q0 85 -51.5 134t-139.5 49q-91 0 -143.5 -49t-52.5 -134zM371 408q0 -94 63.5 -147.5t177.5 -53.5q108 0 174 54t66 147q0 89 -66 141.5t-174 52.5q-113 0 -177 -52t-64 -142z" />
    <glyph glyph-name="nine" unicode="9" horiz-adv-x="1175" 
d="M942 506l-418 -502h-321l399 485q-154 -18 -280 32.5t-197.5 158t-71.5 248.5q0 201 151.5 339t385.5 138q115 0 215 -37t169.5 -99.5t109.5 -147t40 -177.5q0 -126 -40.5 -222t-141.5 -216zM348 936q0 -112 68 -174t170 -62q104 0 172.5 60.5t68.5 175.5
q0 108 -69.5 169.5t-171.5 61.5q-101 0 -169.5 -61.5t-68.5 -169.5z" />
    <glyph glyph-name="colon" unicode=":" horiz-adv-x="612" 
d="M498 903q0 -85 -53 -138.5t-138 -53.5t-138.5 53.5t-53.5 138.5q0 86 53.5 140.5t138.5 54.5t138 -54.5t53 -140.5zM498 182q0 -85 -53 -138.5t-138 -53.5t-138.5 53.5t-53.5 138.5q0 86 53.5 140.5t138.5 54.5t138 -54.5t53 -140.5z" />
    <glyph glyph-name="semicolon" unicode=";" horiz-adv-x="612" 
d="M498 903q0 -85 -53 -138.5t-138 -53.5t-138.5 53.5t-53.5 138.5q0 86 53.5 140.5t138.5 54.5t138 -54.5t53 -140.5zM506 111q0 -119 -67 -219t-173.5 -151t-218.5 -40v158q215 -18 268 176q-82 -21 -142 30t-60 132q0 78 52 128t130 50q100 0 155.5 -67.5t55.5 -196.5z
" />
    <glyph glyph-name="less" unicode="&#x3c;" horiz-adv-x="1351" 
d="M1188 160l-1024 418v225l1024 418v-248l-737 -283l737 -284v-246z" />
    <glyph glyph-name="equal" unicode="=" horiz-adv-x="1351" 
d="M1188 813h-1024v248h1024v-248zM1188 338h-1024v246h1024v-246z" />
    <glyph glyph-name="greater" unicode="&#x3e;" horiz-adv-x="1351" 
d="M1188 578l-1024 -418v246l737 284l-737 283v248l1024 -418v-225z" />
    <glyph glyph-name="question" unicode="?" horiz-adv-x="999" 
d="M573 442h-184q-24 61 -34 104t-8 88t25.5 84t69.5 77l136 116q55 46 77.5 83.5t22.5 84.5q0 72 -53.5 116t-145.5 44q-89 0 -145 -49t-64 -131h-264q7 191 149 311.5t355 120.5q214 0 347.5 -109t133.5 -280q0 -160 -182 -307l-141 -113q-74 -60 -91 -111t-4 -129z
M668 176q0 -81 -57 -133.5t-144 -52.5q-86 0 -143.5 52.5t-57.5 133.5q0 82 56.5 135.5t144.5 53.5t144.5 -53.5t56.5 -135.5z" />
    <glyph glyph-name="at" unicode="@" horiz-adv-x="1996" 
d="M1542 -279q-239 -137 -534 -137q-197 0 -372.5 71.5t-300 193.5t-197 290t-72.5 355q0 188 74 356.5t201.5 290t306.5 193t380 71.5q190 0 359 -62.5t287.5 -167t187.5 -245t69 -293.5q0 -249 -133 -404t-334 -155q-210 0 -284 141q-110 -141 -295 -141q-166 0 -263 120
t-85 312q11 188 119.5 309t267.5 121q155 0 237 -117l17 88h254l-74 -440q-15 -84 17.5 -131t101.5 -47q96 0 148 85.5t52 231.5q0 110 -46 214t-127.5 185t-205.5 130t-270 49q-152 0 -285 -54t-225.5 -147t-145.5 -221t-53 -272q0 -143 52 -270.5t142.5 -220.5t219 -147.5
t275.5 -54.5q162 0 300.5 42.5t233.5 111.5v-234zM805 502q-5 -92 33.5 -150.5t105.5 -58.5q68 0 112.5 62t49.5 161q6 94 -30.5 150.5t-102.5 56.5q-70 0 -117.5 -62t-50.5 -159z" />
    <glyph glyph-name="A" unicode="A" horiz-adv-x="1495" 
d="M1135 0l-111 315h-571l-113 -315h-313l553 1470h340l548 -1470h-333zM537 563h403l-199 567z" />
    <glyph glyph-name="B" unicode="B" horiz-adv-x="1323" 
d="M1247 432q0 -203 -140.5 -317.5t-385.5 -114.5h-576v1470h553q234 0 367 -102t133 -289q0 -101 -53.5 -180.5t-153.5 -130.5q125 -43 190.5 -129t65.5 -207zM676 1225h-246v-342h246q112 0 169.5 45.5t57.5 126.5q0 80 -57.5 125t-169.5 45zM698 635h-268v-389h268
q125 0 189.5 51.5t64.5 146.5q0 89 -65 140t-189 51z" />
    <glyph glyph-name="C" unicode="C" horiz-adv-x="1609" 
d="M1544 606q-25 -188 -127.5 -333t-262 -224.5t-351.5 -79.5q-153 0 -289.5 59.5t-234.5 162t-155.5 245t-57.5 301.5t57.5 300.5t155.5 243t234.5 161t289.5 59.5q291 0 497 -176.5t244 -458.5h-330q-26 159 -138.5 258t-268.5 99q-189 0 -305.5 -135t-116.5 -351
q0 -217 116.5 -353t305.5 -136q156 0 267.5 99.5t139.5 258.5h330z" />
    <glyph glyph-name="D" unicode="D" horiz-adv-x="1472" 
d="M668 0h-523v1470h523q169 0 308.5 -53.5t234.5 -149.5t146.5 -230t51.5 -294q0 -213 -90.5 -381.5t-260.5 -265t-390 -96.5zM457 1202v-934h194q213 0 326 123t113 352q0 220 -113.5 339.5t-325.5 119.5h-194z" />
    <glyph glyph-name="E" unicode="E" horiz-adv-x="1230" 
d="M1135 270v-270h-990v1470h975v-270h-663v-309h604v-268h-604v-353h678z" />
    <glyph glyph-name="F" unicode="F" horiz-adv-x="1167" 
d="M457 0h-312v1470h951v-268h-639v-373h540v-268h-540v-561z" />
    <glyph glyph-name="G" unicode="G" horiz-adv-x="1634" 
d="M1565 793q14 -180 -34.5 -334t-146.5 -261.5t-242.5 -168t-318.5 -60.5q-158 0 -297.5 57t-241 157.5t-160 245.5t-58.5 312q0 214 96 388t266.5 273t382.5 99q274 0 467.5 -147.5t267.5 -392.5h-366q-35 117 -134.5 189.5t-242.5 72.5q-184 0 -301 -130t-117 -360
q0 -143 51 -255t155 -178.5t247 -66.5q158 0 260.5 85.5t134.5 226.5h-426v248h758z" />
    <glyph glyph-name="H" unicode="H" horiz-adv-x="1552" 
d="M457 0h-312v1470h312v-579h639v579h311v-1470h-311v623h-639v-623z" />
    <glyph glyph-name="I" unicode="I" horiz-adv-x="622" 
d="M467 0h-311v1470h311v-1470z" />
    <glyph glyph-name="J" unicode="J" horiz-adv-x="1376" 
d="M1241 528q0 -254 -145.5 -406.5t-413.5 -152.5q-263 0 -410 150.5t-149 392.5h313q3 -264 246 -264q246 0 246 272v950h313v-942z" />
    <glyph glyph-name="K" unicode="K" horiz-adv-x="1398" 
d="M967 0l-510 674v-674h-312v1470h312v-645l528 645h363l-582 -704l598 -766h-397z" />
    <glyph glyph-name="L" unicode="L" horiz-adv-x="1157" 
d="M1098 0h-953v1470h312v-1189h641v-281z" />
    <glyph glyph-name="M" unicode="M" horiz-adv-x="1890" 
d="M799 0l-387 977v-977h-267v1470h373l428 -1089l426 1089h373v-1470h-285v985l-387 -985h-274z" />
    <glyph glyph-name="N" unicode="N" horiz-adv-x="1556" 
d="M1106 0l-674 1026v-1026h-287v1470h336l643 -974v974h287v-1470h-305z" />
    <glyph glyph-name="O" unicode="O" horiz-adv-x="1636" 
d="M1573 737q0 -162 -58.5 -305t-159.5 -244.5t-240.5 -160t-297.5 -58.5q-209 0 -381 99.5t-271 276t-99 392.5t99 391.5t270.5 274t381.5 98.5q158 0 297.5 -58t240.5 -158.5t159.5 -243t58.5 -304.5zM385 737q0 -136 51.5 -246.5t151 -176.5t229.5 -66q131 0 231 66
t151.5 176.5t51.5 246.5q0 208 -118.5 347t-315.5 139q-196 0 -314 -139t-118 -347z" />
    <glyph glyph-name="P" unicode="P" horiz-adv-x="1351" 
d="M690 479h-233v-479h-312v1470h545q273 0 427.5 -126.5t154.5 -362.5q0 -237 -155.5 -369.5t-426.5 -132.5zM688 1208h-231v-467h231q129 0 202 64t73 174q0 109 -72 169t-203 60z" />
    <glyph glyph-name="Q" unicode="Q" horiz-adv-x="1636" 
d="M1573 737q0 -292 -176.5 -502t-450.5 -255v-285h-258v287q-272 43 -447 253t-175 502q0 216 99 391.5t270.5 274t381.5 98.5q158 0 297.5 -58t240.5 -158.5t159.5 -243t58.5 -304.5zM946 604v-330q140 41 222.5 167.5t82.5 295.5q0 208 -118.5 347t-315.5 139
q-196 0 -314 -139t-118 -347q0 -169 81.5 -295.5t221.5 -165.5v328h258z" />
    <glyph glyph-name="R" unicode="R" horiz-adv-x="1425" 
d="M983 0l-332 520h-194v-520h-312v1470h578q277 0 431.5 -124t154.5 -353q0 -155 -90.5 -266t-241.5 -160l385 -567h-379zM707 1212h-250v-436h250q144 0 218 57t74 160q0 104 -74 161.5t-218 57.5z" />
    <glyph glyph-name="S" unicode="S" horiz-adv-x="1363" 
d="M1280 457q0 -214 -160.5 -345.5t-433.5 -131.5q-276 0 -442 137t-183 372h316q5 -123 84 -194.5t219 -71.5q121 0 195.5 50.5t74.5 138.5q0 133 -196 172l-242 47q-87 17 -156.5 48t-124 79.5t-84.5 119.5t-30 160q0 196 155.5 323.5t393.5 127.5q250 0 413 -136
t178 -364h-315q-8 116 -82 187t-190 71q-110 0 -174 -54t-64 -134q0 -126 199 -164l252 -51q198 -39 297.5 -133t99.5 -254z" />
    <glyph glyph-name="T" unicode="T" horiz-adv-x="1267" 
d="M788 0h-309v1190h-465v280h1239v-280h-465v-1190z" />
    <glyph glyph-name="U" unicode="U" horiz-adv-x="1480" 
d="M1346 559q0 -266 -160.5 -428t-444.5 -162q-285 0 -445.5 162t-160.5 428v911h311v-917q0 -143 72.5 -224t222.5 -81q148 0 220.5 81t72.5 224v917h312v-911z" />
    <glyph glyph-name="V" unicode="V" horiz-adv-x="1433" 
d="M1417 1470l-532 -1470h-340l-529 1470h336l373 -1108l381 1108h311z" />
    <glyph glyph-name="W" unicode="W" horiz-adv-x="2007" 
d="M1278 0l-274 1028l-275 -1028h-315l-377 1470h303l238 -997l270 997h317l262 -1001l240 1001h305l-379 -1470h-315z" />
    <glyph glyph-name="X" unicode="X" horiz-adv-x="1558" 
d="M457 0h-381l477 752l-444 718h391l295 -495l299 495h362l-442 -731l469 -739h-383l-326 522z" />
    <glyph glyph-name="Y" unicode="Y" horiz-adv-x="1388" 
d="M848 553v-553h-311v553l-521 917h336l350 -632l357 632h313z" />
    <glyph glyph-name="Z" unicode="Z" horiz-adv-x="1366" 
d="M1266 0h-1160v246l752 956h-747v268h1130v-249l-754 -953h779v-268z" />
    <glyph glyph-name="bracketleft" unicode="[" horiz-adv-x="694" 
d="M631 -395h-494v1865h494v-245h-201v-1375h201v-245z" />
    <glyph glyph-name="backslash" unicode="\" horiz-adv-x="1034" 
d="M1110 -395h-281l-903 1865h281z" />
    <glyph glyph-name="bracketright" unicode="]" horiz-adv-x="694" 
d="M559 -395h-496v245h201v1375h-201v245h496v-1865z" />
    <glyph glyph-name="asciicircum" unicode="^" horiz-adv-x="1351" 
d="M956 561l-278 547l-281 -547h-286l430 823h274l428 -823h-287z" />
    <glyph glyph-name="underscore" unicode="_" horiz-adv-x="1024" 
d="M1024 -395h-1024v245h1024v-245z" />
    <glyph glyph-name="grave" unicode="`" horiz-adv-x="1024" 
d="M655 1157h-297l-237 313h330z" />
    <glyph glyph-name="a" unicode="a" horiz-adv-x="1101" 
d="M764 0v135q-112 -155 -332 -155q-171 0 -274 92t-103 245q0 160 126 244t364 84q91 0 182 -12v65q0 93 -49 144t-139 51q-92 0 -148.5 -51t-56.5 -144h-256q10 180 142 298t321 118q214 0 334 -112.5t120 -313.5v-688h-231zM322 326q0 -69 46.5 -109.5t127.5 -40.5
q107 0 169 56t62 151v78q-83 14 -164 14q-241 0 -241 -149z" />
    <glyph glyph-name="b" unicode="b" horiz-adv-x="1261" 
d="M1208 547q0 -159 -59 -287.5t-170.5 -204t-255.5 -75.5q-211 0 -344 178v-158h-260v1470h282v-520q124 164 322 164q145 0 256 -74t170 -202.5t59 -290.5zM403 551q-1 -149 72.5 -233.5t183.5 -84.5q109 0 182.5 83t73.5 231q0 150 -73 232.5t-183 82.5q-109 0 -182 -81
t-74 -230z" />
    <glyph glyph-name="c" unicode="c" horiz-adv-x="1169" 
d="M1116 467q-25 -219 -171 -353t-361 -134q-151 0 -273 74t-190 203.5t-68 289.5q0 246 150.5 406.5t380.5 160.5q217 0 362 -134t170 -353h-299q-11 102 -72 167.5t-159 65.5q-108 0 -175 -85.5t-67 -227.5q0 -138 67.5 -227t174.5 -89q96 0 158 67.5t73 168.5h299z" />
    <glyph glyph-name="d" unicode="d" horiz-adv-x="1263" 
d="M885 0v158q-133 -178 -346 -178q-108 0 -200 44t-154 120t-97 180t-35 223q0 162 59.5 290.5t170.5 202.5t256 74q195 0 323 -162v518h283v-1470h-260zM346 547q0 -148 73.5 -231t182.5 -83q111 0 185 84.5t73 233.5q-1 148 -75 229.5t-183 81.5q-110 0 -183 -82.5
t-73 -232.5z" />
    <glyph glyph-name="e" unicode="e" horiz-adv-x="1181" 
d="M1116 371q-46 -184 -182 -286.5t-334 -102.5q-245 0 -396 156t-151 413q0 245 153.5 404t389.5 159q170 0 299.5 -84.5t189.5 -231t35 -321.5h-772q1 -126 68 -201t176 -75q93 0 156 44t88 126h280zM590 905q-100 0 -166.5 -69t-75.5 -179h469q-4 114 -65.5 181
t-161.5 67z" />
    <glyph glyph-name="f" unicode="f" horiz-adv-x="800" 
d="M510 0h-283v850h-219v244h219v59q0 164 88.5 252t257.5 88q99 0 177 -33v-225q-47 18 -109 18q-131 0 -131 -106v-53h287v-244h-287v-850z" />
    <glyph glyph-name="g" unicode="g" horiz-adv-x="1228" 
d="M1110 51q0 -218 -137.5 -342.5t-382.5 -124.5q-222 0 -360 112t-144 300h272q9 -191 230 -191q239 0 239 242v160q-45 -77 -125.5 -121.5t-179.5 -44.5q-203 0 -336 153.5t-133 383.5q0 237 127.5 386.5t331.5 149.5q218 0 338 -170v150h260v-1043zM338 578
q0 -134 65 -212.5t175 -78.5q113 0 180 79.5t67 208.5q0 133 -67 213t-180 80q-109 0 -174.5 -78t-65.5 -212z" />
    <glyph glyph-name="h" unicode="h" horiz-adv-x="1214" 
d="M401 610v-610h-282v1470h282v-499q124 143 326 143q172 0 275.5 -107t103.5 -300v-707h-283v616q0 116 -52 181t-153 65q-94 0 -155.5 -66.5t-61.5 -185.5z" />
    <glyph glyph-name="i" unicode="i" horiz-adv-x="540" 
d="M459 1348q0 -73 -53.5 -120.5t-137.5 -47.5t-137 47.5t-53 120.5q0 75 53 123.5t137 48.5t137.5 -48.5t53.5 -123.5zM412 0h-283v1094h283v-1094z" />
    <glyph glyph-name="j" unicode="j" horiz-adv-x="540" 
d="M459 1348q0 -73 -53.5 -120.5t-137.5 -47.5t-137 47.5t-53 120.5q0 75 53 123.5t137 48.5t137.5 -48.5t53.5 -123.5zM412 4q0 -211 -112 -315.5t-296 -104.5q-84 0 -154 23v264q48 -25 119 -25q73 0 116.5 40t43.5 126v1082h283v-1090z" />
    <glyph glyph-name="k" unicode="k" horiz-adv-x="1134" 
d="M811 0l-420 508v-508h-282v1470h282v-839l400 463h327l-450 -525l506 -569h-363z" />
    <glyph glyph-name="l" unicode="l" horiz-adv-x="542" 
d="M414 0h-285v1470h285v-1470z" />
    <glyph glyph-name="m" unicode="m" horiz-adv-x="1890" 
d="M401 610v-610h-282v1094h260v-154q128 174 342 174q111 0 193.5 -50t123.5 -144q138 194 375 194q168 0 268.5 -107t100.5 -300v-707h-283v616q0 117 -49.5 181.5t-144.5 64.5q-91 0 -152 -67t-61 -185v-610h-283v616q0 117 -50 181.5t-145 64.5q-91 0 -152 -67t-61 -185
z" />
    <glyph glyph-name="n" unicode="n" horiz-adv-x="1193" 
d="M401 596v-596h-282v1094h260v-156q132 176 338 176q168 0 268 -106.5t100 -300.5v-707h-282v610q0 123 -48.5 187.5t-144.5 64.5q-89 0 -149 -70t-60 -196z" />
    <glyph glyph-name="o" unicode="o" horiz-adv-x="1216" 
d="M1163 547q0 -156 -72.5 -286.5t-200 -205.5t-282.5 -75q-117 0 -220 44.5t-176.5 120t-116 180.5t-42.5 222q0 158 72 287.5t199.5 204.5t283.5 75q155 0 282.5 -75t200 -205t72.5 -287zM346 547q0 -147 75 -231.5t187 -84.5q111 0 185.5 84.5t74.5 231.5t-74.5 230
t-185.5 83t-186.5 -83.5t-75.5 -229.5z" />
    <glyph glyph-name="p" unicode="p" horiz-adv-x="1261" 
d="M723 -20q-197 0 -322 161v-536h-282v1489h260v-160q132 180 344 180q144 0 255.5 -74.5t170.5 -203t59 -289.5q0 -162 -59 -290.5t-170 -202.5t-256 -74zM403 547q-1 -149 72.5 -231.5t183.5 -82.5t183 82t73 232q0 148 -73.5 231.5t-182.5 83.5t-182 -83t-74 -232z" />
    <glyph glyph-name="q" unicode="q" horiz-adv-x="1263" 
d="M1145 1094v-1489h-283v536q-125 -161 -323 -161q-145 0 -256 74t-170.5 202.5t-59.5 290.5q0 161 59.5 289.5t171 203t255.5 74.5q211 0 346 -180v160h260zM346 547q0 -150 73 -232t183 -82t184 82.5t74 231.5q-1 149 -74.5 232t-183.5 83q-109 0 -182.5 -83.5
t-73.5 -231.5z" />
    <glyph glyph-name="r" unicode="r" horiz-adv-x="829" 
d="M401 530v-530h-282v1094h260v-211q62 107 178.5 167.5t249.5 47.5v-287q-95 8 -166.5 -1.5t-127 -40.5t-84 -90.5t-28.5 -148.5z" />
    <glyph glyph-name="s" unicode="s" horiz-adv-x="1095" 
d="M1038 350q0 -169 -129 -269.5t-354 -100.5q-221 0 -357 104.5t-151 288.5h270q3 -86 66 -135.5t166 -49.5q98 0 151.5 32.5t53.5 88.5q0 44 -36 70t-114 41l-198 37q-149 27 -231.5 106t-82.5 207q0 152 126 249t319 97q208 0 339 -103.5t144 -279.5h-270
q-7 81 -64 127.5t-147 46.5q-79 0 -126.5 -32.5t-47.5 -83.5q0 -43 34.5 -68t108.5 -37l209 -39q321 -61 321 -297z" />
    <glyph glyph-name="t" unicode="t" horiz-adv-x="878" 
d="M805 29q-98 -49 -219 -49q-172 0 -270.5 96.5t-98.5 277.5v496h-219v244h219v323h283v-323h313v-244h-313v-430q0 -93 41 -135.5t121 -42.5q82 0 143 34v-247z" />
    <glyph glyph-name="u" unicode="u" horiz-adv-x="1173" 
d="M795 0v145q-46 -75 -127 -120t-181 -45q-172 0 -275 105.5t-103 311.5v697h282v-641q0 -112 50 -167t137 -55q81 0 137.5 62t56.5 168v633h283v-1094h-260z" />
    <glyph glyph-name="v" unicode="v" horiz-adv-x="1118" 
d="M1118 1094l-401 -1094h-311l-404 1094h307l258 -770l262 770h289z" />
    <glyph glyph-name="w" unicode="w" horiz-adv-x="1646" 
d="M1030 0l-207 711l-207 -711h-284l-309 1094h276l184 -693l201 693h283l194 -693l185 693h278l-313 -1094h-281z" />
    <glyph glyph-name="x" unicode="x" horiz-adv-x="1091" 
d="M301 0h-319l370 557l-346 537h330l223 -377l223 377h301l-340 -547l367 -547h-324l-245 393z" />
    <glyph glyph-name="y" unicode="y" horiz-adv-x="1118" 
d="M1118 1094l-534 -1489h-308l154 407l-428 1082h307l273 -750l252 750h284z" />
    <glyph glyph-name="z" unicode="z" horiz-adv-x="1091" 
d="M1016 0h-932v229l563 619h-563v246h915v-234l-565 -612h582v-248z" />
    <glyph glyph-name="braceleft" unicode="{" horiz-adv-x="694" 
d="M672 -395q-232 -25 -351.5 65t-119.5 264v324q0 82 -41.5 120t-134.5 38v246q94 0 135 36.5t41 118.5v324q0 174 120.5 264t350.5 65v-245q-84 7 -131 -24.5t-47 -90.5v-326q0 -86 -57.5 -153.5t-145.5 -89.5q88 -22 145.5 -91t57.5 -157v-326q0 -60 47.5 -92t130.5 -25
v-245z" />
    <glyph glyph-name="bar" unicode="|" horiz-adv-x="675" 
d="M481 -395h-284v1865h284v-1865z" />
    <glyph glyph-name="braceright" unicode="}" horiz-adv-x="694" 
d="M496 -66q0 -174 -120.5 -264t-352.5 -65v245q83 -7 130.5 25t47.5 92v326q0 88 57 157t145 91q-88 22 -145 89.5t-57 153.5v326q0 59 -47 90.5t-131 24.5v245q231 25 352 -65.5t121 -263.5v-324q0 -82 41 -118.5t135 -36.5v-246q-93 0 -134.5 -38t-41.5 -120v-324z" />
    <glyph glyph-name="asciitilde" unicode="~" horiz-adv-x="1351" 
d="M1233 913q29 -186 -58 -303.5t-247 -117.5q-66 0 -142 25.5t-131.5 56t-113 56t-90.5 25.5q-54 0 -78 -37.5t-23 -130.5h-231q-27 186 60.5 304t246.5 118q66 0 142 -25.5t131 -56.5t112.5 -56.5t91.5 -25.5q54 0 77.5 37.5t20.5 130.5h232z" />
    <glyph glyph-name="nbspace" unicode="&#xa0;" horiz-adv-x="542" 
 />
    <glyph glyph-name="exclamdown" unicode="&#xa1;" horiz-adv-x="581" 
d="M487 897q0 -82 -55 -134t-143 -52q-86 0 -141.5 52t-55.5 134t56 135t141 53t141.5 -53.5t56.5 -134.5zM471 -395h-360l73 1026h213z" />
    <glyph glyph-name="cent" unicode="&#xa2;" horiz-adv-x="1257" 
d="M1184 467q-23 -195 -148.5 -325t-316.5 -156v-148h-184v150q-202 32 -329.5 187t-127.5 372q0 218 127.5 372.5t329.5 186.5v172h184v-170q192 -26 316 -155t149 -326h-299q-11 102 -78.5 167.5t-173.5 65.5q-119 0 -190.5 -85.5t-71.5 -227.5q0 -139 72 -227.5
t190 -88.5q105 0 172 67.5t80 168.5h299z" />
    <glyph glyph-name="sterling" unicode="&#xa3;" horiz-adv-x="1257" 
d="M420 168q-49 0 -71 -38t-19 -130h-232q-20 136 26.5 236.5t143.5 140.5v246h-153v184h153v156q0 202 126 322t331 120q195 0 326 -108.5t143 -309.5h-305q-17 164 -170 164q-77 0 -120.5 -48t-43.5 -140v-156h334v-184h-334v-252q36 -12 145 -62.5t156 -50.5q57 0 83 38
t22 130h231q30 -186 -55 -304t-242 -118q-67 0 -142.5 25.5t-129.5 56.5t-111.5 56.5t-91.5 25.5z" />
    <glyph glyph-name="currency" unicode="&#xa4;" horiz-adv-x="1351" 
d="M674 262q-120 0 -209 53l-164 -163l-164 167l152 150q-66 101 -66 223q0 126 66 223l-152 152l164 166l164 -164q89 53 209 53q113 0 211 -53l164 164l168 -164l-154 -154q63 -101 63 -223q0 -124 -63 -221l151 -152l-165 -165l-164 163q-91 -55 -211 -55zM453 692
q0 -87 41 -143q2 -2 13.5 -14.5t18.5 -18.5q57 -51 148 -51q96 0 158.5 59t62.5 168t-62.5 168.5t-158.5 59.5q-90 0 -148 -52q-6 -5 -17 -16t-17 -16q-39 -58 -39 -144z" />
    <glyph glyph-name="yen" unicode="&#xa5;" horiz-adv-x="1257" 
d="M1169 281h-397v-281h-287v281h-397v184h397v55l-36 72h-361v184h266l-307 606h311l281 -583l283 583h288l-309 -606h268v-184h-360l-37 -72v-55h397v-184z" />
    <glyph glyph-name="brokenbar" unicode="&#xa6;" horiz-adv-x="671" 
d="M197 1323h278v-680h-278v680zM197 434h278v-680h-278v680z" />
    <glyph glyph-name="section" unicode="&#xa7;" horiz-adv-x="1183" 
d="M1073 -61q0 -155 -131 -257t-328 -102q-228 0 -368.5 111t-157.5 297h279q8 -89 69 -142t160 -53q90 0 144.5 40.5t54.5 107.5q0 58 -44 92t-145 59l-194 47q-349 84 -349 334q0 202 246 289q-170 89 -170 278q0 163 124.5 262t316.5 99q206 0 335.5 -110.5t143.5 -286.5
h-279q-9 83 -63.5 133.5t-136.5 50.5q-76 0 -123 -39t-47 -98t42 -95.5t132 -58.5l194 -51q180 -46 263 -124.5t83 -203.5q0 -215 -227 -317q92 -41 134 -104.5t42 -157.5zM330 506q0 -82 85 -126t226 -44q108 0 162.5 39t54.5 108q0 82 -86.5 126t-226.5 44
q-105 0 -160 -39.5t-55 -107.5z" />
    <glyph glyph-name="dieresis" unicode="&#xa8;" horiz-adv-x="1024" 
d="M932 1329q0 -76 -52 -125t-130 -49q-80 0 -131.5 49t-51.5 125t51.5 125t131.5 49q78 0 130 -49t52 -125zM459 1329q0 -77 -51 -125.5t-134 -48.5q-78 0 -129 49t-51 125t51 125t129 49q83 0 134 -48.5t51 -125.5z" />
    <glyph glyph-name="copyright" unicode="&#xa9;" horiz-adv-x="1611" 
d="M1532 692q0 -145 -55.5 -276t-151.5 -226.5t-231.5 -151.5t-288.5 -56q-152 0 -287.5 56t-231 151.5t-151 226.5t-55.5 276q0 146 55.5 277.5t151 227.5t231 152t287.5 56q153 0 288.5 -56t231.5 -152t151.5 -227.5t55.5 -277.5zM248 692q0 -156 70 -284t198 -203.5
t289 -75.5q162 0 291 75.5t198.5 203.5t69.5 284q0 157 -69.5 285t-198 203t-291.5 75q-161 0 -289 -75t-198 -203.5t-70 -284.5zM1174 635q-19 -142 -121 -230t-248 -88q-153 0 -259 108.5t-106 266.5t106 266.5t259 108.5q146 0 248 -88t121 -229h-183q-12 74 -62 118.5
t-122 44.5q-86 0 -137.5 -61t-51.5 -160t51.5 -161t137.5 -62q71 0 122.5 46.5t61.5 119.5h183z" />
    <glyph glyph-name="ordfeminine" unicode="&#xaa;" horiz-adv-x="888" 
d="M610 522v101q-86 -117 -262 -117q-138 0 -221.5 73t-83.5 193q0 126 100.5 193t292.5 67q66 0 144 -10v49q0 67 -39.5 104t-108.5 37q-71 0 -115 -37t-45 -104h-213q8 140 115.5 234t259.5 94q174 0 272.5 -90t98.5 -248v-539h-195zM266 780q0 -51 35.5 -80.5t97.5 -29.5
q84 0 132.5 40.5t48.5 108.5v60q-59 10 -127 10q-187 0 -187 -109z" />
    <glyph glyph-name="guillemotleft" unicode="&#xab;" horiz-adv-x="1210" 
d="M643 127h-311l-299 420l299 420h311l-281 -420zM1139 127h-314l-297 420l297 420h314l-283 -420z" />
    <glyph glyph-name="logicalnot" unicode="&#xac;" horiz-adv-x="1351" 
d="M1167 354h-266v443h-737v245h1003v-688z" />
    <glyph glyph-name="softhyphen" unicode="&#xad;" horiz-adv-x="706" 
d="M666 436h-625v254h625v-254z" />
    <glyph glyph-name="registered" unicode="&#xae;" horiz-adv-x="1611" 
d="M1532 692q0 -145 -55.5 -276t-151.5 -226.5t-231.5 -151.5t-288.5 -56q-152 0 -287.5 56t-231 151.5t-151 226.5t-55.5 276q0 146 55.5 277.5t151 227.5t231 152t287.5 56q153 0 288.5 -56t231.5 -152t151.5 -227.5t55.5 -277.5zM248 692q0 -156 70 -284t198 -203.5
t289 -75.5q162 0 291 75.5t198.5 203.5t69.5 284q0 157 -69.5 285t-198 203t-291.5 75q-161 0 -289 -75t-198 -203.5t-70 -284.5zM930 332l-154 246h-80v-246h-170v721h289q141 0 219 -61.5t78 -176.5q0 -74 -43 -128.5t-115 -80.5l185 -274h-209zM807 911h-111v-190h111
q135 0 135 94q0 44 -34 70t-101 26z" />
    <glyph glyph-name="macron" unicode="&#xaf;" horiz-adv-x="1024" 
d="M848 1184h-670v184h670v-184z" />
    <glyph glyph-name="degree" unicode="&#xb0;" horiz-adv-x="974" 
d="M938 1051q0 -180 -129.5 -305t-321.5 -125t-321 125t-129 305q0 181 129 305.5t321 124.5t321.5 -124.5t129.5 -305.5zM266 1051q0 -102 63.5 -166t157.5 -64t157 64t63 166q0 103 -62.5 166t-157.5 63t-158 -63t-63 -166z" />
    <glyph glyph-name="plusminus" unicode="&#xb1;" horiz-adv-x="1351" 
d="M809 362h-266v379h-379v248h379v377h266v-377h379v-248h-379v-379zM1188 0h-1024v248h1024v-248z" />
    <glyph glyph-name="twosuperior" unicode="&#xb2;" horiz-adv-x="731" 
d="M694 1223v-168h-643l2 106l279 252q85 76 118 118t33 93q0 44 -37 75.5t-98 31.5q-67 0 -104 -32t-37 -91h-182q0 128 94 209t241 81q145 0 232.5 -74.5t87.5 -174.5q0 -79 -45.5 -143.5t-161.5 -166.5l-123 -116h344z" />
    <glyph glyph-name="threesuperior" unicode="&#xb3;" horiz-adv-x="815" 
d="M754 1305q0 -117 -98 -189t-255 -72q-149 0 -244.5 72.5t-95.5 186.5h183q4 -52 46.5 -80.5t112.5 -28.5q73 0 114.5 28t41.5 78q0 49 -47.5 77t-132.5 28h-100v149h90q69 0 109 26.5t40 72.5q0 44 -34 70t-93 26t-93 -29.5t-36 -77.5h-182q2 108 93.5 182t225.5 74
q143 0 228.5 -64t85.5 -167q0 -108 -129 -176q81 -25 125.5 -73t44.5 -113z" />
    <glyph glyph-name="acute" unicode="&#xb4;" horiz-adv-x="1024" 
d="M666 1157h-297l206 313h328z" />
    <glyph glyph-name="micro" unicode="&#xb5;" horiz-adv-x="1214" 
d="M590 -20q-143 0 -215 81l24 -456h-280v1489h282v-621q0 -242 209 -242q96 0 149.5 67t53.5 169v627h283v-1094h-279v117q-32 -63 -93.5 -100t-133.5 -37z" />
    <glyph glyph-name="paragraph" unicode="&#xb6;" horiz-adv-x="1533" 
d="M870 -395h-282v796q-239 15 -373.5 142.5t-134.5 347.5q0 235 154.5 364t422.5 129l836 2v-253h-162v-1528h-284v1528h-177v-1528z" />
    <glyph glyph-name="periodcentered" unicode="&#xb7;" horiz-adv-x="612" 
d="M498 543q0 -85 -53 -139t-138 -54t-138.5 54t-53.5 139q0 86 53.5 140t138.5 54t138 -54t53 -140z" />
    <glyph glyph-name="cedilla" unicode="&#xb8;" horiz-adv-x="1024" 
d="M750 -231q0 -76 -70.5 -125.5t-179.5 -49.5q-114 0 -183 51t-81 146h176q8 -63 75 -63q30 0 49 16t19 41q0 90 -156 74l45 174h142l-29 -99q87 -11 140 -55.5t53 -109.5z" />
    <glyph glyph-name="onesuperior" unicode="&#xb9;" horiz-adv-x="509" 
d="M389 1055h-190v667h-172v164h362v-831z" />
    <glyph glyph-name="ordmasculine" unicode="&#xba;" horiz-adv-x="978" 
d="M940 952q0 -188 -130 -317t-321 -129t-319.5 129t-128.5 317t128.5 317.5t319.5 129.5t321 -129.5t130 -317.5zM287 952q0 -110 58 -171.5t144 -61.5t145.5 62t59.5 171t-59.5 171.5t-145.5 62.5t-144 -62t-58 -172z" />
    <glyph glyph-name="guillemotright" unicode="&#xbb;" horiz-adv-x="1210" 
d="M385 127h-313l282 420l-282 420h313l297 -420zM881 127h-314l283 420l-283 420h314l297 -420z" />
    <glyph glyph-name="onequarter" unicode="&#xbc;" horiz-adv-x="1595" 
d="M403 0h-227l787 1384h227zM389 553h-190v668h-172v163h362v-831zM1475 158h-129v-158h-189v158h-436v139l475 534h150v-509h129v-164zM938 322h219v251z" />
    <glyph glyph-name="onehalf" unicode="&#xbd;" horiz-adv-x="1632" 
d="M403 0h-227l787 1384h227zM389 553h-190v668h-172v163h362v-831zM1509 168v-168h-641v106l281 252q85 76 118 118t33 93q0 45 -37.5 76t-99.5 31q-65 0 -102 -32t-37 -91h-182q-1 128 94 209.5t242 81.5q145 0 232 -75t87 -175q0 -79 -45.5 -142.5t-161.5 -166.5
l-123 -117h342z" />
    <glyph glyph-name="threequarters" unicode="&#xbe;" horiz-adv-x="1802" 
d="M754 803q0 -117 -98 -188.5t-255 -71.5q-149 0 -244.5 72t-95.5 186h183q4 -52 46.5 -80.5t112.5 -28.5q73 0 114.5 28t41.5 79q0 49 -47.5 76.5t-132.5 27.5h-100v150h90q69 0 109 26t40 72q0 44 -34 70t-93 26t-93 -29t-36 -77h-182q2 108 93.5 182t225.5 74
q143 0 228.5 -64.5t85.5 -167.5q0 -108 -129 -176q81 -25 125.5 -73t44.5 -113zM668 0h-226l787 1384h225zM1739 158h-129v-158h-187v158h-438v139l475 534h150v-509h129v-164zM1202 322h221v251z" />
    <glyph glyph-name="questiondown" unicode="&#xbf;" horiz-adv-x="999" 
d="M733 915q0 -83 -56.5 -136.5t-144.5 -53.5q-86 0 -142 53.5t-56 136.5q0 80 56 133.5t142 53.5t143.5 -53.5t57.5 -133.5zM995 16q-7 -191 -148.5 -311.5t-354.5 -120.5q-214 0 -349 109t-135 280q0 79 46 152.5t136 155.5l142 129q73 66 90 114t4 123h184
q31 -79 39 -132.5t-12.5 -109.5t-77.5 -110l-137 -131q-56 -54 -78 -89t-22 -79q0 -71 53.5 -115.5t144.5 -44.5q89 0 145 49t64 131h266z" />
    <glyph glyph-name="Agrave" unicode="&#xc0;" horiz-adv-x="1495" 
d="M891 1556h-295l-238 314h330zM1135 0l-111 315h-571l-113 -315h-313l553 1470h340l548 -1470h-333zM537 563h403l-199 567z" />
    <glyph glyph-name="Aacute" unicode="&#xc1;" horiz-adv-x="1495" 
d="M901 1556h-295l205 314h330zM1135 0l-111 315h-571l-113 -315h-313l553 1470h340l548 -1470h-333zM537 563h403l-199 567z" />
    <glyph glyph-name="Acircumflex" unicode="&#xc2;" horiz-adv-x="1495" 
d="M604 1556h-313l282 314h353l280 -314h-311l-145 162zM1135 0l-111 315h-571l-113 -315h-313l553 1470h340l548 -1470h-333zM537 563h403l-199 567z" />
    <glyph glyph-name="Atilde" unicode="&#xc3;" horiz-adv-x="1495" 
d="M545 1548h-174q-23 143 38 232.5t175 89.5q58 0 118.5 -26t108.5 -51.5t74 -25.5q68 0 65 117h174q23 -138 -39 -228.5t-176 -90.5q-58 0 -118 25t-108 50t-75 25q-68 0 -63 -117zM1135 0l-111 315h-571l-113 -315h-313l553 1470h340l548 -1470h-333zM537 563h403
l-199 567z" />
    <glyph glyph-name="Adieresis" unicode="&#xc4;" horiz-adv-x="1495" 
d="M1167 1729q0 -76 -51 -125.5t-129 -49.5q-81 0 -132.5 49t-51.5 126t51 125.5t133 48.5q78 0 129 -49t51 -125zM696 1729q0 -77 -50.5 -126t-133.5 -49q-78 0 -129 49.5t-51 125.5t51 125t129 49q83 0 133.5 -48.5t50.5 -125.5zM1135 0l-111 315h-571l-113 -315h-313
l553 1470h340l548 -1470h-333zM537 563h403l-199 567z" />
    <glyph glyph-name="Aring" unicode="&#xc5;" horiz-adv-x="1495" 
d="M1028 1798q0 -103 -79.5 -177.5t-198.5 -74.5q-120 0 -198.5 74t-78.5 178q0 106 78 181t199 75q120 0 199 -75t79 -181zM637 1798q0 -52 33 -80t80 -28t78.5 27.5t31.5 80.5q0 54 -31.5 83.5t-78.5 29.5q-46 0 -79.5 -29.5t-33.5 -83.5zM1135 0l-111 315h-571l-113 -315
h-313l553 1470h340l548 -1470h-333zM537 563h403l-199 567z" />
    <glyph glyph-name="AE" unicode="&#xc6;" horiz-adv-x="1806" 
d="M807 0v315h-414l-151 -315h-348l727 1470h1075v-268h-578v-311h516v-268h-516v-355h592v-268h-903zM504 563h303v635z" />
    <glyph glyph-name="Ccedilla" unicode="&#xc7;" horiz-adv-x="1609" 
d="M1040 -231q0 -76 -70 -125.5t-179 -49.5q-114 0 -183.5 51.5t-79.5 145.5h174q11 -63 78 -63q30 0 49 16t19 41q0 90 -158 74l31 116q-185 19 -335 123.5t-235 272.5t-85 366q0 159 57.5 300.5t155.5 243t234.5 161t289.5 59.5q291 0 497 -176.5t244 -458.5h-330
q-26 159 -138.5 258t-268.5 99q-189 0 -305.5 -135t-116.5 -351q0 -217 116.5 -353t305.5 -136q156 0 267.5 99.5t139.5 258.5h330q-37 -269 -226 -443.5t-460 -191.5l-10 -37q88 -11 140 -55t52 -110z" />
    <glyph glyph-name="Egrave" unicode="&#xc8;" horiz-adv-x="1230" 
d="M782 1556h-295l-239 314h330zM1135 270v-270h-990v1470h975v-270h-663v-309h604v-268h-604v-353h678z" />
    <glyph glyph-name="Eacute" unicode="&#xc9;" horiz-adv-x="1230" 
d="M793 1556h-295l204 314h328zM1135 270v-270h-990v1470h975v-270h-663v-309h604v-268h-604v-353h678z" />
    <glyph glyph-name="Ecircumflex" unicode="&#xca;" horiz-adv-x="1230" 
d="M496 1559h-314l283 311h352l281 -311h-312l-145 161zM1135 270v-270h-990v1470h975v-270h-663v-309h604v-268h-604v-353h678z" />
    <glyph glyph-name="Edieresis" unicode="&#xcb;" horiz-adv-x="1230" 
d="M1059 1729q0 -76 -51 -125.5t-129 -49.5q-82 0 -133.5 49t-51.5 126t51.5 125.5t133.5 48.5q78 0 129 -49t51 -125zM586 1729q0 -77 -51 -126t-132 -49q-78 0 -130 49.5t-52 125.5t52 125t130 49q81 0 132 -48.5t51 -125.5zM1135 270v-270h-990v1470h975v-270h-663v-309
h604v-268h-604v-353h678z" />
    <glyph glyph-name="Igrave" unicode="&#xcc;" horiz-adv-x="622" 
d="M457 1556h-295l-240 314h330zM467 0h-311v1470h311v-1470z" />
    <glyph glyph-name="Iacute" unicode="&#xcd;" horiz-adv-x="622" 
d="M467 1556h-295l205 314h328zM467 0h-311v1470h311v-1470z" />
    <glyph glyph-name="Icircumflex" unicode="&#xce;" horiz-adv-x="622" 
d="M170 1556h-313l282 314h350l283 -314h-311l-148 162zM467 0h-311v1470h311v-1470z" />
    <glyph glyph-name="Idieresis" unicode="&#xcf;" horiz-adv-x="622" 
d="M733 1729q0 -76 -51.5 -125.5t-128.5 -49.5q-81 0 -132.5 49t-51.5 126t51 125.5t133 48.5q77 0 128.5 -49t51.5 -125zM260 1729q0 -77 -50.5 -126t-133.5 -49q-77 0 -128.5 49.5t-51.5 125.5t51.5 125t128.5 49q83 0 133.5 -48.5t50.5 -125.5zM467 0h-311v1470h311
v-1470z" />
    <glyph glyph-name="Eth" unicode="&#xd0;" horiz-adv-x="1589" 
d="M1524 743q0 -213 -91 -381.5t-260.5 -265t-388.5 -96.5h-524v631h-219v252h219v587h524q225 0 393.5 -92.5t257.5 -257t89 -377.5zM571 268h197q212 0 324 123t112 352q0 221 -112.5 340t-323.5 119h-197v-319h316v-252h-316v-363z" />
    <glyph glyph-name="Ntilde" unicode="&#xd1;" horiz-adv-x="1556" 
d="M573 1548h-174q-23 143 38 232.5t175 89.5q58 0 118.5 -26t108.5 -51.5t74 -25.5q69 0 66 117h174q23 -138 -39 -228.5t-176 -90.5q-58 0 -118 25t-108 50t-75 25q-69 0 -64 -117zM1106 0l-674 1026v-1026h-287v1470h336l643 -974v974h287v-1470h-305z" />
    <glyph glyph-name="Ograve" unicode="&#xd2;" horiz-adv-x="1636" 
d="M961 1556h-295l-240 314h330zM1573 737q0 -162 -58.5 -305t-159.5 -244.5t-240.5 -160t-297.5 -58.5q-209 0 -381 99.5t-271 276t-99 392.5t99 391.5t270.5 274t381.5 98.5q158 0 297.5 -58t240.5 -158.5t159.5 -243t58.5 -304.5zM385 737q0 -136 51.5 -246.5t151 -176.5
t229.5 -66q131 0 231 66t151.5 176.5t51.5 246.5q0 208 -118.5 347t-315.5 139q-196 0 -314 -139t-118 -347z" />
    <glyph glyph-name="Oacute" unicode="&#xd3;" horiz-adv-x="1636" 
d="M971 1556h-295l205 314h327zM1573 737q0 -162 -58.5 -305t-159.5 -244.5t-240.5 -160t-297.5 -58.5q-209 0 -381 99.5t-271 276t-99 392.5t99 391.5t270.5 274t381.5 98.5q158 0 297.5 -58t240.5 -158.5t159.5 -243t58.5 -304.5zM385 737q0 -136 51.5 -246.5t151 -176.5
t229.5 -66q131 0 231 66t151.5 176.5t51.5 246.5q0 208 -118.5 347t-315.5 139q-196 0 -314 -139t-118 -347z" />
    <glyph glyph-name="Ocircumflex" unicode="&#xd4;" horiz-adv-x="1636" 
d="M674 1556h-314l283 314h352l281 -314h-311l-148 162zM1573 737q0 -162 -58.5 -305t-159.5 -244.5t-240.5 -160t-297.5 -58.5q-209 0 -381 99.5t-271 276t-99 392.5t99 391.5t270.5 274t381.5 98.5q158 0 297.5 -58t240.5 -158.5t159.5 -243t58.5 -304.5zM385 737
q0 -136 51.5 -246.5t151 -176.5t229.5 -66q131 0 231 66t151.5 176.5t51.5 246.5q0 208 -118.5 347t-315.5 139q-196 0 -314 -139t-118 -347z" />
    <glyph glyph-name="Otilde" unicode="&#xd5;" horiz-adv-x="1636" 
d="M614 1548h-174q-24 142 37.5 232t173.5 90q59 0 120 -26t108 -51.5t73 -25.5q71 0 68 117h174q22 -139 -40 -229t-175 -90q-58 0 -118 25t-108 50t-75 25q-69 0 -64 -117zM1573 737q0 -162 -58.5 -305t-159.5 -244.5t-240.5 -160t-297.5 -58.5q-209 0 -381 99.5t-271 276
t-99 392.5t99 391.5t270.5 274t381.5 98.5q158 0 297.5 -58t240.5 -158.5t159.5 -243t58.5 -304.5zM385 737q0 -136 51.5 -246.5t151 -176.5t229.5 -66q131 0 231 66t151.5 176.5t51.5 246.5q0 208 -118.5 347t-315.5 139q-196 0 -314 -139t-118 -347z" />
    <glyph glyph-name="Odieresis" unicode="&#xd6;" horiz-adv-x="1636" 
d="M1237 1729q0 -76 -51 -125.5t-129 -49.5q-82 0 -133.5 49t-51.5 126t51.5 125.5t133.5 48.5q78 0 129 -49t51 -125zM764 1729q0 -77 -50.5 -126t-131.5 -49q-78 0 -130.5 49.5t-52.5 125.5t52 125t131 49q81 0 131.5 -48.5t50.5 -125.5zM1573 737q0 -162 -58.5 -305
t-159.5 -244.5t-240.5 -160t-297.5 -58.5q-209 0 -381 99.5t-271 276t-99 392.5t99 391.5t270.5 274t381.5 98.5q158 0 297.5 -58t240.5 -158.5t159.5 -243t58.5 -304.5zM385 737q0 -136 51.5 -246.5t151 -176.5t229.5 -66q131 0 231 66t151.5 176.5t51.5 246.5
q0 208 -118.5 347t-315.5 139q-196 0 -314 -139t-118 -347z" />
    <glyph glyph-name="multiply" unicode="&#xd7;" horiz-adv-x="1351" 
d="M676 526l-324 -323l-164 168l322 321l-322 324l164 168l324 -326l321 324l170 -164l-325 -326l321 -321l-166 -166z" />
    <glyph glyph-name="Oslash" unicode="&#xd8;" horiz-adv-x="1636" 
d="M1573 737q0 -162 -58.5 -305t-159.5 -244.5t-240.5 -160t-297.5 -58.5q-203 0 -373 101l-57 -70h-278l157 205q-95 103 -147.5 239.5t-52.5 292.5q0 216 99 391.5t270.5 274t381.5 98.5q209 0 377 -102l57 71h277l-158 -202q97 -103 150 -239t53 -292zM385 737
q0 -153 74 -276l559 706q-85 56 -201 56q-196 0 -314 -139t-118 -347zM1251 737q0 155 -73 273l-560 -709q88 -53 199 -53q131 0 231 66t151.5 176.5t51.5 246.5z" />
    <glyph glyph-name="Ugrave" unicode="&#xd9;" horiz-adv-x="1480" 
d="M885 1556h-297l-238 314h330zM1346 559q0 -266 -160.5 -428t-444.5 -162q-285 0 -445.5 162t-160.5 428v911h311v-917q0 -143 72.5 -224t222.5 -81q148 0 220.5 81t72.5 224v917h312v-911z" />
    <glyph glyph-name="Uacute" unicode="&#xda;" horiz-adv-x="1480" 
d="M895 1556h-297l207 314h328zM1346 559q0 -266 -160.5 -428t-444.5 -162q-285 0 -445.5 162t-160.5 428v911h311v-917q0 -143 72.5 -224t222.5 -81q148 0 220.5 81t72.5 224v917h312v-911z" />
    <glyph glyph-name="Ucircumflex" unicode="&#xdb;" horiz-adv-x="1480" 
d="M598 1556h-313l282 314h351l282 -314h-311l-148 162zM1346 559q0 -266 -160.5 -428t-444.5 -162q-285 0 -445.5 162t-160.5 428v911h311v-917q0 -143 72.5 -224t222.5 -81q148 0 220.5 81t72.5 224v917h312v-911z" />
    <glyph glyph-name="Udieresis" unicode="&#xdc;" horiz-adv-x="1480" 
d="M1161 1729q0 -76 -51.5 -125.5t-128.5 -49.5q-81 0 -132.5 49t-51.5 126t51 125.5t133 48.5q77 0 128.5 -49t51.5 -125zM688 1729q0 -77 -50.5 -126t-133.5 -49q-77 0 -128.5 49.5t-51.5 125.5t51.5 125t128.5 49q83 0 133.5 -48.5t50.5 -125.5zM1346 559
q0 -266 -160.5 -428t-444.5 -162q-285 0 -445.5 162t-160.5 428v911h311v-917q0 -143 72.5 -224t222.5 -81q148 0 220.5 81t72.5 224v917h312v-911z" />
    <glyph glyph-name="Yacute" unicode="&#xdd;" horiz-adv-x="1388" 
d="M846 1556h-295l205 314h327zM848 553v-553h-311v553l-521 917h336l350 -632l357 632h313z" />
    <glyph glyph-name="Thorn" unicode="&#xde;" horiz-adv-x="1341" 
d="M680 244h-223v-244h-312v1470h312v-233h223q273 0 427.5 -126.5t154.5 -362.5q0 -239 -155.5 -371.5t-426.5 -132.5zM678 975h-221v-469h221q129 0 201.5 63.5t72.5 173.5t-72 171t-202 61z" />
    <glyph glyph-name="germandbls" unicode="&#xdf;" horiz-adv-x="1325" 
d="M1249 426q0 -211 -131.5 -328.5t-363.5 -117.5q-80 0 -123 14v223q61 -10 104 -10q101 0 162 58.5t61 158.5q0 102 -70.5 160.5t-185.5 58.5h-73v229h51q93 0 152 57t59 150q0 87 -50 137t-134 50q-90 0 -143.5 -58t-53.5 -159v-1049h-283v850h-219v244h223
q23 173 150.5 285t329.5 112q216 0 342.5 -112t126.5 -279q0 -100 -56 -182t-149 -127q126 -39 200 -136.5t74 -228.5z" />
    <glyph glyph-name="agrave" unicode="&#xe0;" horiz-adv-x="1101" 
d="M688 1182h-295l-239 311h329zM764 0v135q-112 -155 -332 -155q-171 0 -274 92t-103 245q0 160 126 244t364 84q91 0 182 -12v65q0 93 -49 144t-139 51q-92 0 -148.5 -51t-56.5 -144h-256q10 180 142 298t321 118q214 0 334 -112.5t120 -313.5v-688h-231zM322 326
q0 -69 46.5 -109.5t127.5 -40.5q107 0 169 56t62 151v78q-83 14 -164 14q-241 0 -241 -149z" />
    <glyph glyph-name="aacute" unicode="&#xe1;" horiz-adv-x="1101" 
d="M698 1182h-295l205 311h328zM764 0v135q-112 -155 -332 -155q-171 0 -274 92t-103 245q0 160 126 244t364 84q91 0 182 -12v65q0 93 -49 144t-139 51q-92 0 -148.5 -51t-56.5 -144h-256q10 180 142 298t321 118q214 0 334 -112.5t120 -313.5v-688h-231zM322 326
q0 -69 46.5 -109.5t127.5 -40.5q107 0 169 56t62 151v78q-83 14 -164 14q-241 0 -241 -149z" />
    <glyph glyph-name="acircumflex" unicode="&#xe2;" horiz-adv-x="1101" 
d="M401 1182h-313l283 311h352l281 -311h-312l-147 161zM764 0v135q-112 -155 -332 -155q-171 0 -274 92t-103 245q0 160 126 244t364 84q91 0 182 -12v65q0 93 -49 144t-139 51q-92 0 -148.5 -51t-56.5 -144h-256q10 180 142 298t321 118q214 0 334 -112.5t120 -313.5v-688
h-231zM322 326q0 -69 46.5 -109.5t127.5 -40.5q107 0 169 56t62 151v78q-83 14 -164 14q-241 0 -241 -149z" />
    <glyph glyph-name="atilde" unicode="&#xe3;" horiz-adv-x="1101" 
d="M340 1174h-174q-23 141 38 230t175 89q59 0 120 -25t108 -50t73 -25q71 0 68 114h174q22 -139 -40 -229t-177 -90q-57 0 -117 25t-107.5 50t-74.5 25q-69 0 -66 -114zM764 0v135q-112 -155 -332 -155q-171 0 -274 92t-103 245q0 160 126 244t364 84q91 0 182 -12v65
q0 93 -49 144t-139 51q-92 0 -148.5 -51t-56.5 -144h-256q10 180 142 298t321 118q214 0 334 -112.5t120 -313.5v-688h-231zM322 326q0 -69 46.5 -109.5t127.5 -40.5q107 0 169 56t62 151v78q-83 14 -164 14q-241 0 -241 -149z" />
    <glyph glyph-name="adieresis" unicode="&#xe4;" horiz-adv-x="1101" 
d="M965 1352q0 -74 -52 -123t-129 -49q-81 0 -132.5 48.5t-51.5 123.5q0 78 51 126t133 48q78 0 129.5 -48.5t51.5 -125.5zM492 1352q0 -75 -51 -123.5t-132 -48.5q-78 0 -130 48.5t-52 123.5q0 77 51.5 125.5t130.5 48.5q82 0 132.5 -48t50.5 -126zM764 0v135
q-112 -155 -332 -155q-171 0 -274 92t-103 245q0 160 126 244t364 84q91 0 182 -12v65q0 93 -49 144t-139 51q-92 0 -148.5 -51t-56.5 -144h-256q10 180 142 298t321 118q214 0 334 -112.5t120 -313.5v-688h-231zM322 326q0 -69 46.5 -109.5t127.5 -40.5q107 0 169 56
t62 151v78q-83 14 -164 14q-241 0 -241 -149z" />
    <glyph glyph-name="aring" unicode="&#xe5;" horiz-adv-x="1101" 
d="M823 1423q0 -105 -78.5 -178.5t-199.5 -73.5t-199 73.5t-78 178.5q0 106 78 180t199 74t199.5 -74t78.5 -180zM434 1423q0 -54 32 -81t79 -27q49 0 79.5 27t30.5 81q0 53 -31 82t-79 29q-46 0 -78.5 -29t-32.5 -82zM764 0v135q-112 -155 -332 -155q-171 0 -274 92
t-103 245q0 160 126 244t364 84q91 0 182 -12v65q0 93 -49 144t-139 51q-92 0 -148.5 -51t-56.5 -144h-256q10 180 142 298t321 118q214 0 334 -112.5t120 -313.5v-688h-231zM322 326q0 -69 46.5 -109.5t127.5 -40.5q107 0 169 56t62 151v78q-83 14 -164 14
q-241 0 -241 -149z" />
    <glyph glyph-name="ae" unicode="&#xe6;" horiz-adv-x="1781" 
d="M1237 -18q-133 0 -236.5 56t-166.5 163q-58 -105 -156.5 -163t-228.5 -58q-175 0 -284.5 92t-109.5 243q0 158 125.5 243t360.5 85q111 0 186 -10v63q0 94 -49.5 145.5t-140.5 51.5q-90 0 -146 -51t-57 -144h-256q11 180 139.5 298t317.5 118q247 0 348 -162
q63 76 154 119t198 43q247 0 382.5 -173.5t104.5 -459.5h-735q3 -134 62.5 -206t173.5 -72q92 0 144.5 44t64.5 124h288q-41 -184 -169 -286.5t-314 -102.5zM1217 905q-94 0 -154.5 -62.5t-69.5 -180.5h439q-4 115 -61 179t-154 64zM322 324q0 -68 47.5 -108t126.5 -40
q107 0 169 61t62 162v62q-66 10 -168 10q-237 0 -237 -147z" />
    <glyph glyph-name="ccedilla" unicode="&#xe7;" horiz-adv-x="1167" 
d="M819 -231q0 -76 -70.5 -125.5t-179.5 -49.5q-114 0 -183 51t-81 146h176q8 -63 76 -63q30 0 49 16t19 41q0 90 -156 74l33 127q-198 28 -323.5 184t-125.5 377q0 246 150.5 406.5t380.5 160.5q217 0 362 -134t170 -353h-299q-11 102 -72 167.5t-159 65.5
q-108 0 -175 -85.5t-67 -227.5q0 -138 67.5 -227t174.5 -89q96 0 158 67.5t73 168.5h299q-23 -204 -152.5 -336t-322.5 -149l-14 -48q87 -11 139.5 -55.5t52.5 -109.5z" />
    <glyph glyph-name="egrave" unicode="&#xe8;" horiz-adv-x="1181" 
d="M725 1182h-295l-240 311h330zM1116 371q-46 -184 -182 -286.5t-334 -102.5q-245 0 -396 156t-151 413q0 245 153.5 404t389.5 159q170 0 299.5 -84.5t189.5 -231t35 -321.5h-772q1 -126 68 -201t176 -75q93 0 156 44t88 126h280zM590 905q-100 0 -166.5 -69t-75.5 -179
h469q-4 114 -65.5 181t-161.5 67z" />
    <glyph glyph-name="eacute" unicode="&#xe9;" horiz-adv-x="1181" 
d="M735 1182h-295l205 311h328zM1116 371q-46 -184 -182 -286.5t-334 -102.5q-245 0 -396 156t-151 413q0 245 153.5 404t389.5 159q170 0 299.5 -84.5t189.5 -231t35 -321.5h-772q1 -126 68 -201t176 -75q93 0 156 44t88 126h280zM590 905q-100 0 -166.5 -69t-75.5 -179
h469q-4 114 -65.5 181t-161.5 67z" />
    <glyph glyph-name="ecircumflex" unicode="&#xea;" horiz-adv-x="1181" 
d="M438 1182h-313l283 311h352l280 -311h-311l-147 161zM1116 371q-46 -184 -182 -286.5t-334 -102.5q-245 0 -396 156t-151 413q0 245 153.5 404t389.5 159q170 0 299.5 -84.5t189.5 -231t35 -321.5h-772q1 -126 68 -201t176 -75q93 0 156 44t88 126h280zM590 905
q-100 0 -166.5 -69t-75.5 -179h469q-4 114 -65.5 181t-161.5 67z" />
    <glyph glyph-name="edieresis" unicode="&#xeb;" horiz-adv-x="1181" 
d="M1001 1352q0 -75 -51 -123.5t-129 -48.5q-81 0 -132.5 48.5t-51.5 123.5q0 78 51 126t133 48q79 0 129.5 -48.5t50.5 -125.5zM528 1352q0 -76 -50.5 -124t-131.5 -48q-78 0 -130 48.5t-52 123.5q0 77 51.5 125.5t130.5 48.5q82 0 132 -48t50 -126zM1116 371
q-46 -184 -182 -286.5t-334 -102.5q-245 0 -396 156t-151 413q0 245 153.5 404t389.5 159q170 0 299.5 -84.5t189.5 -231t35 -321.5h-772q1 -126 68 -201t176 -75q93 0 156 44t88 126h280zM590 905q-100 0 -166.5 -69t-75.5 -179h469q-4 114 -65.5 181t-161.5 67z" />
    <glyph glyph-name="igrave" unicode="&#xec;" horiz-adv-x="540" 
d="M412 1182h-297l-215 311h327zM412 0h-283v1094h283v-1094z" />
    <glyph glyph-name="iacute" unicode="&#xed;" horiz-adv-x="540" 
d="M422 1182h-295l184 311h326zM412 0h-283v1094h283v-1094z" />
    <glyph glyph-name="icircumflex" unicode="&#xee;" horiz-adv-x="540" 
d="M147 1182h-313l254 311h361l253 -311h-311l-123 161zM412 0h-283v1094h283v-1094z" />
    <glyph glyph-name="idieresis" unicode="&#xef;" horiz-adv-x="540" 
d="M668 1352q0 -75 -49.5 -123.5t-124.5 -48.5q-79 0 -130 48.5t-51 123.5q0 78 50.5 126t130.5 48q76 0 125 -48.5t49 -125.5zM225 1352q0 -76 -49.5 -124t-130.5 -48q-74 0 -124 49t-50 123q0 77 49.5 125.5t124.5 48.5q81 0 130.5 -48t49.5 -126zM412 0h-283v1094h283
v-1094z" />
    <glyph glyph-name="eth" unicode="&#xf0;" horiz-adv-x="1200" 
d="M1149 535q0 -109 -40.5 -209.5t-111 -177t-174.5 -122.5t-223 -46q-159 0 -285 75.5t-194 203t-68 282.5q0 239 139 386.5t367 147.5q49 0 84 -18l-106 137l-273 -78v184l154 50l-92 120h319l43 -53l289 80v-184l-170 -53l158 -207q105 -138 144.5 -250.5t39.5 -267.5z
M344 543q0 -147 72.5 -228.5t183.5 -81.5q108 0 181 80.5t73 225.5q0 150 -73 233.5t-181 83.5q-111 0 -183.5 -82t-72.5 -231z" />
    <glyph glyph-name="ntilde" unicode="&#xf1;" horiz-adv-x="1193" 
d="M393 1174h-174q-23 141 38 230t175 89q59 0 120 -25t108 -50t73 -25q71 0 66 114h176q22 -139 -40 -229t-177 -90q-57 0 -117 25t-107.5 50t-74.5 25q-69 0 -66 -114zM401 596v-596h-282v1094h260v-156q132 176 338 176q168 0 268 -106.5t100 -300.5v-707h-282v610
q0 123 -48.5 187.5t-144.5 64.5q-89 0 -149 -70t-60 -196z" />
    <glyph glyph-name="ograve" unicode="&#xf2;" horiz-adv-x="1216" 
d="M750 1182h-295l-238 311h330zM1163 547q0 -156 -72.5 -286.5t-200 -205.5t-282.5 -75q-117 0 -220 44.5t-176.5 120t-116 180.5t-42.5 222q0 158 72 287.5t199.5 204.5t283.5 75q155 0 282.5 -75t200 -205t72.5 -287zM346 547q0 -147 75 -231.5t187 -84.5
q111 0 185.5 84.5t74.5 231.5t-74.5 230t-185.5 83t-186.5 -83.5t-75.5 -229.5z" />
    <glyph glyph-name="oacute" unicode="&#xf3;" horiz-adv-x="1216" 
d="M760 1182h-295l205 311h329zM1163 547q0 -156 -72.5 -286.5t-200 -205.5t-282.5 -75q-117 0 -220 44.5t-176.5 120t-116 180.5t-42.5 222q0 158 72 287.5t199.5 204.5t283.5 75q155 0 282.5 -75t200 -205t72.5 -287zM346 547q0 -147 75 -231.5t187 -84.5
q111 0 185.5 84.5t74.5 231.5t-74.5 230t-185.5 83t-186.5 -83.5t-75.5 -229.5z" />
    <glyph glyph-name="ocircumflex" unicode="&#xf4;" horiz-adv-x="1216" 
d="M463 1182h-313l282 311h352l283 -311h-313l-146 161zM1163 547q0 -156 -72.5 -286.5t-200 -205.5t-282.5 -75q-117 0 -220 44.5t-176.5 120t-116 180.5t-42.5 222q0 158 72 287.5t199.5 204.5t283.5 75q155 0 282.5 -75t200 -205t72.5 -287zM346 547q0 -147 75 -231.5
t187 -84.5q111 0 185.5 84.5t74.5 231.5t-74.5 230t-185.5 83t-186.5 -83.5t-75.5 -229.5z" />
    <glyph glyph-name="otilde" unicode="&#xf5;" horiz-adv-x="1216" 
d="M403 1174h-174q-23 141 38 230t175 89q58 0 118.5 -25t108.5 -50t74 -25q71 0 66 114h174q23 -138 -39 -228.5t-176 -90.5q-58 0 -118 25t-107.5 50t-73.5 25q-71 0 -66 -114zM1163 547q0 -156 -72.5 -286.5t-200 -205.5t-282.5 -75q-117 0 -220 44.5t-176.5 120
t-116 180.5t-42.5 222q0 158 72 287.5t199.5 204.5t283.5 75q155 0 282.5 -75t200 -205t72.5 -287zM346 547q0 -147 75 -231.5t187 -84.5q111 0 185.5 84.5t74.5 231.5t-74.5 230t-185.5 83t-186.5 -83.5t-75.5 -229.5z" />
    <glyph glyph-name="odieresis" unicode="&#xf6;" horiz-adv-x="1216" 
d="M1026 1352q0 -75 -51 -123.5t-129 -48.5q-81 0 -132.5 48.5t-51.5 123.5q0 78 51 126t133 48q79 0 129.5 -48.5t50.5 -125.5zM555 1352q0 -76 -50.5 -124t-133.5 -48q-78 0 -129.5 48.5t-51.5 123.5q0 77 51 125.5t130 48.5q83 0 133.5 -48t50.5 -126zM1163 547
q0 -156 -72.5 -286.5t-200 -205.5t-282.5 -75q-117 0 -220 44.5t-176.5 120t-116 180.5t-42.5 222q0 158 72 287.5t199.5 204.5t283.5 75q155 0 282.5 -75t200 -205t72.5 -287zM346 547q0 -147 75 -231.5t187 -84.5q111 0 185.5 84.5t74.5 231.5t-74.5 230t-185.5 83
t-186.5 -83.5t-75.5 -229.5z" />
    <glyph glyph-name="divide" unicode="&#xf7;" horiz-adv-x="1351" 
d="M866 1087q0 -85 -52.5 -138.5t-137.5 -53.5t-139 53.5t-54 138.5q0 86 54 140.5t139 54.5t137.5 -54.5t52.5 -140.5zM1188 575h-1024v246h1024v-246zM866 315q0 -85 -52.5 -138.5t-137.5 -53.5t-139 53.5t-54 138.5q0 86 54 140.5t139 54.5t137.5 -54.5t52.5 -140.5z" />
    <glyph glyph-name="oslash" unicode="&#xf8;" horiz-adv-x="1216" 
d="M1163 547q0 -156 -72.5 -286.5t-200 -205.5t-282.5 -75q-149 0 -266 69l-31 -39h-217l109 144q-150 160 -150 393q0 158 72 287.5t199.5 204.5t283.5 75q150 0 269 -72l30 39h215l-106 -143q147 -160 147 -391zM346 547q0 -86 33 -154l338 434q-44 33 -109 33
q-111 0 -186.5 -83.5t-75.5 -229.5zM868 547q0 89 -30 151l-336 -434q48 -33 106 -33q111 0 185.5 84.5t74.5 231.5z" />
    <glyph glyph-name="ugrave" unicode="&#xf9;" horiz-adv-x="1173" 
d="M731 1182h-295l-239 311h329zM795 0v145q-46 -75 -127 -120t-181 -45q-172 0 -275 105.5t-103 311.5v697h282v-641q0 -112 50 -167t137 -55q81 0 137.5 62t56.5 168v633h283v-1094h-260z" />
    <glyph glyph-name="uacute" unicode="&#xfa;" horiz-adv-x="1173" 
d="M741 1182h-295l205 311h328zM795 0v145q-46 -75 -127 -120t-181 -45q-172 0 -275 105.5t-103 311.5v697h282v-641q0 -112 50 -167t137 -55q81 0 137.5 62t56.5 168v633h283v-1094h-260z" />
    <glyph glyph-name="ucircumflex" unicode="&#xfb;" horiz-adv-x="1173" 
d="M444 1182h-313l283 311h350l283 -311h-312l-147 161zM795 0v145q-46 -75 -127 -120t-181 -45q-172 0 -275 105.5t-103 311.5v697h282v-641q0 -112 50 -167t137 -55q81 0 137.5 62t56.5 168v633h283v-1094h-260z" />
    <glyph glyph-name="udieresis" unicode="&#xfc;" horiz-adv-x="1173" 
d="M1008 1352q0 -74 -52 -123t-129 -49q-81 0 -132.5 48.5t-51.5 123.5q0 78 51 126t133 48q78 0 129.5 -48.5t51.5 -125.5zM535 1352q0 -76 -51 -124t-134 -48q-77 0 -128.5 48.5t-51.5 123.5q0 77 51.5 125.5t128.5 48.5q83 0 134 -48t51 -126zM795 0v145
q-46 -75 -127 -120t-181 -45q-172 0 -275 105.5t-103 311.5v697h282v-641q0 -112 50 -167t137 -55q81 0 137.5 62t56.5 168v633h283v-1094h-260z" />
    <glyph glyph-name="yacute" unicode="&#xfd;" horiz-adv-x="1118" 
d="M715 1182h-297l207 311h327zM1118 1094l-534 -1489h-308l154 407l-428 1082h307l273 -750l252 750h284z" />
    <glyph glyph-name="thorn" unicode="&#xfe;" horiz-adv-x="1261" 
d="M723 -20q-197 0 -322 161v-536h-282v1865h282v-516q60 77 143 118.5t179 41.5q144 0 255.5 -74.5t170.5 -203t59 -289.5q0 -162 -59 -290.5t-170 -202.5t-256 -74zM403 547q-1 -149 72.5 -231.5t183.5 -82.5t183 82t73 232q0 148 -73.5 231.5t-182.5 83.5t-182 -83
t-74 -232z" />
    <glyph glyph-name="ydieresis" unicode="&#xff;" horiz-adv-x="1118" 
d="M981 1352q0 -75 -52 -123.5t-130 -48.5q-80 0 -131.5 48.5t-51.5 123.5q0 77 51.5 125.5t131.5 48.5q79 0 130.5 -48.5t51.5 -125.5zM508 1352q0 -76 -50.5 -124t-133.5 -48q-78 0 -129.5 48.5t-51.5 123.5q0 77 51 125.5t130 48.5q83 0 133.5 -48t50.5 -126zM1118 1094
l-534 -1489h-308l154 407l-428 1082h307l273 -750l252 750h284z" />
    <glyph glyph-name="Amacron" unicode="&#x100;" horiz-adv-x="1495" 
d="M1085 1583h-671v184h671v-184zM1135 0l-111 315h-571l-113 -315h-313l553 1470h340l548 -1470h-333zM537 563h403l-199 567z" />
    <glyph glyph-name="amacron" unicode="&#x101;" horiz-adv-x="1101" 
d="M881 1206h-670v187h670v-187zM764 0v135q-112 -155 -332 -155q-171 0 -274 92t-103 245q0 160 126 244t364 84q91 0 182 -12v65q0 93 -49 144t-139 51q-92 0 -148.5 -51t-56.5 -144h-256q10 180 142 298t321 118q214 0 334 -112.5t120 -313.5v-688h-231zM322 326
q0 -69 46.5 -109.5t127.5 -40.5q107 0 169 56t62 151v78q-83 14 -164 14q-241 0 -241 -149z" />
    <glyph glyph-name="Abreve" unicode="&#x102;" horiz-adv-x="1495" 
d="M1104 1870q0 -147 -95.5 -234.5t-258.5 -87.5q-165 0 -261 87.5t-96 234.5h201q0 -65 42.5 -103t113.5 -38t112 37.5t41 103.5h201zM1135 0l-111 315h-571l-113 -315h-313l553 1470h340l548 -1470h-333zM537 563h403l-199 567z" />
    <glyph glyph-name="abreve" unicode="&#x103;" horiz-adv-x="1101" 
d="M901 1493q0 -147 -96 -234.5t-260 -87.5q-165 0 -261 87.5t-96 234.5h203q0 -65 42 -103t112 -38q72 0 113.5 37.5t41.5 103.5h201zM764 0v135q-112 -155 -332 -155q-171 0 -274 92t-103 245q0 160 126 244t364 84q91 0 182 -12v65q0 93 -49 144t-139 51
q-92 0 -148.5 -51t-56.5 -144h-256q10 180 142 298t321 118q214 0 334 -112.5t120 -313.5v-688h-231zM322 326q0 -69 46.5 -109.5t127.5 -40.5q107 0 169 56t62 151v78q-83 14 -164 14q-241 0 -241 -149z" />
    <glyph glyph-name="Aogonek" unicode="&#x104;" horiz-adv-x="1495" 
d="M1364 -383q-70 -25 -137.5 -22t-121 24.5t-86 70t-32.5 115.5q0 119 133 236l-96 274h-571l-113 -315h-313l553 1470h340l548 -1470h-200q-62 -58 -62 -115q0 -62 44.5 -84.5t113.5 4.5v-188zM537 563h403l-199 567z" />
    <glyph glyph-name="aogonek" unicode="&#x105;" horiz-adv-x="1101" 
d="M993 -383q-70 -25 -137.5 -22t-120.5 24.5t-86 70t-33 115.5t37.5 126t110.5 120v84q-112 -155 -332 -155q-171 0 -274 92t-103 245q0 160 126 244t364 84q91 0 182 -12v65q0 93 -49 144t-139 51q-92 0 -148.5 -51t-56.5 -144h-256q10 180 142 298t321 118
q214 0 334 -112.5t120 -313.5v-688h-98q-61 -54 -61 -115q0 -62 44 -84.5t113 4.5v-188zM322 326q0 -69 46.5 -109.5t127.5 -40.5q107 0 169 56t62 151v78q-83 14 -164 14q-241 0 -241 -149z" />
    <glyph glyph-name="Cacute" unicode="&#x106;" horiz-adv-x="1609" 
d="M956 1556h-294l204 314h328zM1544 606q-25 -188 -127.5 -333t-262 -224.5t-351.5 -79.5q-153 0 -289.5 59.5t-234.5 162t-155.5 245t-57.5 301.5t57.5 300.5t155.5 243t234.5 161t289.5 59.5q291 0 497 -176.5t244 -458.5h-330q-26 159 -138.5 258t-268.5 99
q-189 0 -305.5 -135t-116.5 -351q0 -217 116.5 -353t305.5 -136q156 0 267.5 99.5t139.5 258.5h330z" />
    <glyph glyph-name="cacute" unicode="&#x107;" horiz-adv-x="1167" 
d="M735 1182h-297l207 311h328zM1116 467q-25 -219 -171 -353t-361 -134q-151 0 -273 74t-190 203.5t-68 289.5q0 246 150.5 406.5t380.5 160.5q217 0 362 -134t170 -353h-299q-11 102 -72 167.5t-159 65.5q-108 0 -175 -85.5t-67 -227.5q0 -138 67.5 -227t174.5 -89
q96 0 158 67.5t73 168.5h299z" />
    <glyph glyph-name="Ccaron" unicode="&#x10c;" horiz-adv-x="1609" 
d="M981 1556h-352l-283 314h313l144 -162l147 162h312zM1544 606q-25 -188 -127.5 -333t-262 -224.5t-351.5 -79.5q-153 0 -289.5 59.5t-234.5 162t-155.5 245t-57.5 301.5t57.5 300.5t155.5 243t234.5 161t289.5 59.5q291 0 497 -176.5t244 -458.5h-330q-26 159 -138.5 258
t-268.5 99q-189 0 -305.5 -135t-116.5 -351q0 -217 116.5 -353t305.5 -136q156 0 267.5 99.5t139.5 258.5h330z" />
    <glyph glyph-name="ccaron" unicode="&#x10d;" horiz-adv-x="1167" 
d="M758 1182h-350l-285 311h313l146 -162l147 162h311zM1116 467q-25 -219 -171 -353t-361 -134q-151 0 -273 74t-190 203.5t-68 289.5q0 246 150.5 406.5t380.5 160.5q217 0 362 -134t170 -353h-299q-11 102 -72 167.5t-159 65.5q-108 0 -175 -85.5t-67 -227.5
q0 -138 67.5 -227t174.5 -89q96 0 158 67.5t73 168.5h299z" />
    <glyph glyph-name="Dcaron" unicode="&#x10e;" horiz-adv-x="1472" 
d="M913 1556h-352l-282 314h313l143 -162l148 162h311zM668 0h-523v1470h523q169 0 308.5 -53.5t234.5 -149.5t146.5 -230t51.5 -294q0 -213 -90.5 -381.5t-260.5 -265t-390 -96.5zM457 1202v-934h194q213 0 326 123t113 352q0 220 -113.5 339.5t-325.5 119.5h-194z" />
    <glyph glyph-name="dcaron" unicode="&#x10f;" horiz-adv-x="1226" 
d="M1399 1100h-189v393h236zM885 0v158q-133 -178 -346 -178q-108 0 -200 44t-154 120t-97 180t-35 223q0 162 59.5 290.5t170.5 202.5t256 74q195 0 323 -162v518h283v-1470h-260zM346 547q0 -148 73.5 -231t182.5 -83q111 0 185 84.5t73 233.5q-1 148 -75 229.5t-183 81.5
q-110 0 -183 -82.5t-73 -232.5z" />
    <glyph glyph-name="Dcroat" unicode="&#x110;" horiz-adv-x="1513" 
d="M1450 743q0 -213 -90.5 -381.5t-260.5 -265t-390 -96.5h-523v631h-219v252h219v587h523q169 0 308.5 -53.5t234.5 -149.5t146.5 -230t51.5 -294zM498 268h194q213 0 325.5 122.5t112.5 352.5q0 220 -113 339.5t-325 119.5h-194v-319h313v-252h-313v-363z" />
    <glyph glyph-name="dcroat" unicode="&#x111;" horiz-adv-x="1263" 
d="M885 158q-133 -178 -346 -178q-108 0 -200 44t-154 120t-97 180t-35 223q0 162 59.5 290.5t170.5 202.5t256 74q195 0 323 -162v252h-295v185h295v81h283v-81h158v-185h-158v-1204h-260v158zM346 547q0 -148 73.5 -231t182.5 -83q111 0 185 84.5t73 233.5
q-1 148 -75 229.5t-183 81.5q-110 0 -183 -82.5t-73 -232.5z" />
    <glyph glyph-name="Emacron" unicode="&#x112;" horiz-adv-x="1230" 
d="M975 1583h-670v184h670v-184zM1135 270v-270h-990v1470h975v-270h-663v-309h604v-268h-604v-353h678z" />
    <glyph glyph-name="emacron" unicode="&#x113;" horiz-adv-x="1181" 
d="M918 1206h-670v187h670v-187zM1116 371q-46 -184 -182 -286.5t-334 -102.5q-245 0 -396 156t-151 413q0 245 153.5 404t389.5 159q170 0 299.5 -84.5t189.5 -231t35 -321.5h-772q1 -126 68 -201t176 -75q93 0 156 44t88 126h280zM590 905q-100 0 -166.5 -69t-75.5 -179
h469q-4 114 -65.5 181t-161.5 67z" />
    <glyph glyph-name="Edotaccent" unicode="&#x116;" horiz-adv-x="1230" 
d="M829 1724q0 -74 -53 -122t-137 -48t-137 48t-53 122t53 122t137 48t137 -48t53 -122zM1135 270v-270h-990v1470h975v-270h-663v-309h604v-268h-604v-353h678z" />
    <glyph glyph-name="edotaccent" unicode="&#x117;" horiz-adv-x="1181" 
d="M772 1348q0 -73 -53 -120.5t-137 -47.5t-137.5 47.5t-53.5 120.5q0 75 53.5 123.5t137.5 48.5t137 -48.5t53 -123.5zM1116 371q-46 -184 -182 -286.5t-334 -102.5q-245 0 -396 156t-151 413q0 245 153.5 404t389.5 159q170 0 299.5 -84.5t189.5 -231t35 -321.5h-772
q1 -126 68 -201t176 -75q93 0 156 44t88 126h280zM590 905q-100 0 -166.5 -69t-75.5 -179h469q-4 114 -65.5 181t-161.5 67z" />
    <glyph glyph-name="Eogonek" unicode="&#x118;" horiz-adv-x="1230" 
d="M1061 -383q-70 -25 -138 -22t-121.5 24.5t-86.5 70t-33 115.5q0 96 96 195h-633v1470h975v-270h-663v-309h604v-268h-604v-353h678v-270h-172q-60 -56 -60 -115q0 -62 43.5 -84.5t114.5 4.5v-188z" />
    <glyph glyph-name="eogonek" unicode="&#x119;" horiz-adv-x="1181" 
d="M934 -383q-70 -25 -137.5 -22t-121 24.5t-86 70t-32.5 115.5v13q6 82 78 164h-35q-245 0 -396 156t-151 413q0 245 153.5 404t389.5 159q170 0 299.5 -84.5t189.5 -231t35 -321.5h-772q1 -126 68 -201t176 -75q93 0 156 44t88 126h280q-50 -205 -213 -299l2 -2
q-129 -89 -129 -185q0 -2 1 -6t1 -6q5 -56 48 -75t108 7v-188zM590 905q-100 0 -166.5 -69t-75.5 -179h469q-4 114 -65.5 181t-161.5 67z" />
    <glyph glyph-name="Ecaron" unicode="&#x11a;" horiz-adv-x="1230" 
d="M817 1556h-352l-283 314h314l143 -162l147 162h312zM1135 270v-270h-990v1470h975v-270h-663v-309h604v-268h-604v-353h678z" />
    <glyph glyph-name="ecaron" unicode="&#x11b;" horiz-adv-x="1181" 
d="M760 1182h-352l-283 311h313l144 -162l147 162h311zM1116 371q-46 -184 -182 -286.5t-334 -102.5q-245 0 -396 156t-151 413q0 245 153.5 404t389.5 159q170 0 299.5 -84.5t189.5 -231t35 -321.5h-772q1 -126 68 -201t176 -75q93 0 156 44t88 126h280zM590 905
q-100 0 -166.5 -69t-75.5 -179h469q-4 114 -65.5 181t-161.5 67z" />
    <glyph glyph-name="Gbreve" unicode="&#x11e;" horiz-adv-x="1634" 
d="M1165 1870q0 -147 -95.5 -234.5t-258.5 -87.5q-165 0 -260.5 87.5t-95.5 234.5h202q0 -66 41.5 -103.5t112.5 -37.5q72 0 113 37.5t41 103.5h200zM1565 793q14 -180 -34.5 -334t-146.5 -261.5t-242.5 -168t-318.5 -60.5q-158 0 -297.5 57t-241 157.5t-160 245.5
t-58.5 312q0 214 96 388t266.5 273t382.5 99q274 0 467.5 -147.5t267.5 -392.5h-366q-35 117 -134.5 189.5t-242.5 72.5q-184 0 -301 -130t-117 -360q0 -143 51 -255t155 -178.5t247 -66.5q158 0 260.5 85.5t134.5 226.5h-426v248h758z" />
    <glyph glyph-name="gbreve" unicode="&#x11f;" horiz-adv-x="1228" 
d="M948 1493q0 -147 -96 -234.5t-260 -87.5q-165 0 -260.5 87.5t-95.5 234.5h202q0 -65 42 -103t112 -38q72 0 114 37.5t42 103.5h200zM1110 51q0 -218 -137.5 -342.5t-382.5 -124.5q-222 0 -360 112t-144 300h272q9 -191 230 -191q239 0 239 242v160q-45 -77 -125.5 -121.5
t-179.5 -44.5q-203 0 -336 153.5t-133 383.5q0 237 127.5 386.5t331.5 149.5q218 0 338 -170v150h260v-1043zM338 578q0 -134 65 -212.5t175 -78.5q113 0 180 79.5t67 208.5q0 133 -67 213t-180 80q-109 0 -174.5 -78t-65.5 -212z" />
    <glyph glyph-name="Gcommaaccent" unicode="&#x122;" horiz-adv-x="1634" 
d="M1565 793q14 -180 -34.5 -334t-146.5 -261.5t-242.5 -168t-318.5 -60.5q-158 0 -297.5 57t-241 157.5t-160 245.5t-58.5 312q0 214 96 388t266.5 273t382.5 99q274 0 467.5 -147.5t267.5 -392.5h-366q-35 117 -134.5 189.5t-242.5 72.5q-184 0 -301 -130t-117 -360
q0 -143 51 -255t155 -178.5t247 -66.5q158 0 260.5 85.5t134.5 226.5h-426v248h758zM973 -233q0 -113 -101 -183t-241 -51v107q75 -9 124.5 9t61.5 60q-67 -17 -117.5 13t-50.5 85q0 54 41.5 86.5t110.5 32.5q76 0 124 -44t48 -115z" />
    <glyph glyph-name="gcommaaccent" unicode="&#x123;" horiz-adv-x="1228" 
d="M754 1286q0 -54 -41.5 -85.5t-110.5 -31.5q-75 0 -123.5 44t-48.5 114q0 114 100.5 183.5t241.5 50.5v-105q-75 8 -124.5 -11t-61.5 -61q66 18 117 -12.5t51 -85.5zM1110 51q0 -218 -137.5 -342.5t-382.5 -124.5q-222 0 -360 112t-144 300h272q9 -191 230 -191
q239 0 239 242v160q-45 -77 -125.5 -121.5t-179.5 -44.5q-203 0 -336 153.5t-133 383.5q0 237 127.5 386.5t331.5 149.5q218 0 338 -170v150h260v-1043zM338 578q0 -134 65 -212.5t175 -78.5q113 0 180 79.5t67 208.5q0 133 -67 213t-180 80q-109 0 -174.5 -78t-65.5 -212z
" />
    <glyph glyph-name="Imacron" unicode="&#x12a;" horiz-adv-x="622" 
d="M649 1583h-669v184h669v-184zM467 0h-311v1470h311v-1470z" />
    <glyph glyph-name="imacron" unicode="&#x12b;" horiz-adv-x="540" 
d="M604 1206h-670v187h670v-187zM412 0h-283v1094h283v-1094z" />
    <glyph glyph-name="Iogonek" unicode="&#x12e;" horiz-adv-x="622" 
d="M387 -383q-71 -25 -139 -22t-121 24.5t-86 70t-33 115.5q0 66 38 125t110 121v1419h311v-1470h-178q-62 -58 -62 -115q0 -62 44.5 -84.5t115.5 4.5v-188z" />
    <glyph glyph-name="iogonek" unicode="&#x12f;" horiz-adv-x="540" 
d="M459 1348q0 -73 -53.5 -120.5t-137.5 -47.5t-137 47.5t-53 120.5q0 75 53 123.5t137 48.5t137.5 -48.5t53.5 -123.5zM358 -383q-70 -25 -137.5 -22t-120.5 24.5t-85.5 70t-32.5 115.5q0 122 147 246v1043h283v-1094h-150q-61 -57 -61 -115q0 -62 44 -84.5t113 4.5v-188z
" />
    <glyph glyph-name="Idotaccent" unicode="&#x130;" horiz-adv-x="622" 
d="M502 1724q0 -74 -53 -122t-136 -48q-84 0 -137 48t-53 122t53 122t137 48q83 0 136 -48t53 -122zM467 0h-311v1470h311v-1470z" />
    <glyph glyph-name="dotlessi" unicode="&#x131;" horiz-adv-x="540" 
d="M412 0h-283v1094h283v-1094z" />
    <glyph glyph-name="Kcommaaccent" unicode="&#x136;" horiz-adv-x="1398" 
d="M967 0l-510 674v-674h-312v1470h312v-645l528 645h363l-582 -704l598 -766h-397zM868 -233q0 -113 -101 -183t-243 -51v107q76 -9 126.5 9t62.5 60q-68 -17 -118 13t-50 85q0 54 41 86.5t110 32.5q76 0 124 -44t48 -115z" />
    <glyph glyph-name="kcommaaccent" unicode="&#x137;" horiz-adv-x="1134" 
d="M811 0l-420 508v-508h-282v1470h282v-839l400 463h327l-450 -525l506 -569h-363zM754 -233q0 -113 -101 -183t-243 -51v107q76 -9 125.5 9t62.5 60q-68 -17 -118 13t-50 85q0 54 41.5 86.5t110.5 32.5q76 0 124 -44t48 -115z" />
    <glyph glyph-name="Lacute" unicode="&#x139;" horiz-adv-x="1157" 
d="M465 1556h-297l205 314h329zM1098 0h-953v1470h312v-1189h641v-281z" />
    <glyph glyph-name="lacute" unicode="&#x13a;" horiz-adv-x="542" 
d="M424 1556h-295l205 314h328zM414 0h-285v1470h285v-1470z" />
    <glyph glyph-name="Lcommaaccent" unicode="&#x13b;" horiz-adv-x="1157" 
d="M1098 0h-953v1470h312v-1189h641v-281zM778 -233q0 -113 -101 -183t-241 -51v107q75 -9 125 9t62 60q-67 -17 -117.5 13t-50.5 85q0 54 41 86.5t110 32.5q76 0 124 -44t48 -115z" />
    <glyph glyph-name="lcommaaccent" unicode="&#x13c;" horiz-adv-x="542" 
d="M414 0h-285v1470h285v-1470zM434 -233q0 -113 -101 -183t-243 -51v107q76 -9 126.5 9t62.5 60q-68 -17 -118 13t-50 85q0 54 41 86.5t110 32.5q76 0 124 -44t48 -115z" />
    <glyph glyph-name="Lcaron" unicode="&#x13d;" horiz-adv-x="1157" 
d="M1098 0h-953v1470h312v-1189h641v-281zM793 1075h-187v395h236z" />
    <glyph glyph-name="lcaron" unicode="&#x13e;" horiz-adv-x="495" 
d="M414 0h-285v1470h285v-1470zM670 1075h-189v395h236z" />
    <glyph glyph-name="Lslash" unicode="&#x141;" horiz-adv-x="1157" 
d="M1098 281v-281h-953v565l-188 -47v250l188 47v655h312v-583l413 102v-246l-413 -104v-358h641z" />
    <glyph glyph-name="lslash" unicode="&#x142;" horiz-adv-x="913" 
d="M791 702l-189 -45v-657h-285v596l-194 -47v235l194 45v641h285v-575l189 45v-238z" />
    <glyph glyph-name="Nacute" unicode="&#x143;" horiz-adv-x="1556" 
d="M930 1556h-295l205 314h329zM1106 0l-674 1026v-1026h-287v1470h336l643 -974v974h287v-1470h-305z" />
    <glyph glyph-name="nacute" unicode="&#x144;" horiz-adv-x="1193" 
d="M752 1182h-295l205 311h327zM401 596v-596h-282v1094h260v-156q132 176 338 176q168 0 268 -106.5t100 -300.5v-707h-282v610q0 123 -48.5 187.5t-144.5 64.5q-89 0 -149 -70t-60 -196z" />
    <glyph glyph-name="Ncommaaccent" unicode="&#x145;" horiz-adv-x="1556" 
d="M1106 0l-674 1026v-1026h-287v1470h336l643 -974v974h287v-1470h-305zM940 -233q0 -113 -101 -183t-241 -51v107q75 -9 124.5 9t61.5 60q-67 -17 -117.5 13t-50.5 85q0 54 41.5 86.5t110.5 32.5q76 0 124 -44t48 -115z" />
    <glyph glyph-name="ncommaaccent" unicode="&#x146;" horiz-adv-x="1193" 
d="M401 596v-596h-282v1094h260v-156q132 176 338 176q168 0 268 -106.5t100 -300.5v-707h-282v610q0 123 -48.5 187.5t-144.5 64.5q-89 0 -149 -70t-60 -196zM762 -233q0 -113 -101 -183t-243 -51v107q76 -9 125.5 9t62.5 60q-68 -17 -118 13t-50 85q0 54 41.5 86.5
t110.5 32.5q76 0 124 -44t48 -115z" />
    <glyph glyph-name="Ncaron" unicode="&#x147;" horiz-adv-x="1556" 
d="M954 1556h-352l-283 314h314l145 -162l146 162h311zM1106 0l-674 1026v-1026h-287v1470h336l643 -974v974h287v-1470h-305z" />
    <glyph glyph-name="ncaron" unicode="&#x148;" horiz-adv-x="1193" 
d="M774 1182h-350l-283 311h314l143 -162l147 162h312zM401 596v-596h-282v1094h260v-156q132 176 338 176q168 0 268 -106.5t100 -300.5v-707h-282v610q0 123 -48.5 187.5t-144.5 64.5q-89 0 -149 -70t-60 -196z" />
    <glyph glyph-name="Omacron" unicode="&#x14c;" horiz-adv-x="1636" 
d="M1153 1583h-670v184h670v-184zM1573 737q0 -162 -58.5 -305t-159.5 -244.5t-240.5 -160t-297.5 -58.5q-209 0 -381 99.5t-271 276t-99 392.5t99 391.5t270.5 274t381.5 98.5q158 0 297.5 -58t240.5 -158.5t159.5 -243t58.5 -304.5zM385 737q0 -136 51.5 -246.5
t151 -176.5t229.5 -66q131 0 231 66t151.5 176.5t51.5 246.5q0 208 -118.5 347t-315.5 139q-196 0 -314 -139t-118 -347z" />
    <glyph glyph-name="omacron" unicode="&#x14d;" horiz-adv-x="1216" 
d="M944 1206h-672v187h672v-187zM1163 547q0 -156 -72.5 -286.5t-200 -205.5t-282.5 -75q-117 0 -220 44.5t-176.5 120t-116 180.5t-42.5 222q0 158 72 287.5t199.5 204.5t283.5 75q155 0 282.5 -75t200 -205t72.5 -287zM346 547q0 -147 75 -231.5t187 -84.5
q111 0 185.5 84.5t74.5 231.5t-74.5 230t-185.5 83t-186.5 -83.5t-75.5 -229.5z" />
    <glyph glyph-name="Ohungarumlaut" unicode="&#x150;" horiz-adv-x="1636" 
d="M1145 1556h-279l221 314h295zM717 1556h-279l205 314h293zM1573 737q0 -162 -58.5 -305t-159.5 -244.5t-240.5 -160t-297.5 -58.5q-209 0 -381 99.5t-271 276t-99 392.5t99 391.5t270.5 274t381.5 98.5q158 0 297.5 -58t240.5 -158.5t159.5 -243t58.5 -304.5zM385 737
q0 -136 51.5 -246.5t151 -176.5t229.5 -66q131 0 231 66t151.5 176.5t51.5 246.5q0 208 -118.5 347t-315.5 139q-196 0 -314 -139t-118 -347z" />
    <glyph glyph-name="ohungarumlaut" unicode="&#x151;" horiz-adv-x="1216" 
d="M934 1182h-279l222 311h294zM506 1182h-279l205 311h295zM1163 547q0 -156 -72.5 -286.5t-200 -205.5t-282.5 -75q-117 0 -220 44.5t-176.5 120t-116 180.5t-42.5 222q0 158 72 287.5t199.5 204.5t283.5 75q155 0 282.5 -75t200 -205t72.5 -287zM346 547
q0 -147 75 -231.5t187 -84.5q111 0 185.5 84.5t74.5 231.5t-74.5 230t-185.5 83t-186.5 -83.5t-75.5 -229.5z" />
    <glyph glyph-name="OE" unicode="&#x152;" horiz-adv-x="2201" 
d="M1163 0v156q-78 -89 -185.5 -138t-234.5 -49q-144 0 -269 55.5t-215 155t-141.5 243.5t-51.5 314t51.5 313.5t141.5 242t215 153.5t269 55q126 0 240.5 -48t179.5 -130v147h928v-268h-651v-311h592v-268h-592v-355h665v-268h-942zM385 737q0 -221 100 -355t271 -134
q174 0 273 133.5t99 355.5q0 221 -98.5 353.5t-273.5 132.5q-172 0 -271.5 -133t-99.5 -353z" />
    <glyph glyph-name="oe" unicode="&#x153;" horiz-adv-x="1945" 
d="M1376 -18q-125 0 -226.5 51t-164.5 151q-66 -97 -169 -150.5t-226 -53.5q-231 0 -384 159.5t-153 407.5q0 165 70.5 295t193 201t273.5 71q122 0 225.5 -54.5t171.5 -150.5q64 98 162.5 151.5t218.5 53.5q173 0 298 -81t182 -226t36 -330h-756q5 -134 67 -205t181 -71
q93 0 148.5 46.5t68.5 123.5h289q-50 -184 -181.5 -286.5t-324.5 -102.5zM1368 905q-97 0 -160.5 -64t-72.5 -184h458q-5 119 -63 183.5t-162 64.5zM346 547q0 -151 71 -233.5t179 -82.5t180 83t72 233t-71.5 231.5t-180.5 81.5q-107 0 -178.5 -81.5t-71.5 -231.5z" />
    <glyph glyph-name="Racute" unicode="&#x154;" horiz-adv-x="1425" 
d="M850 1556h-295l205 314h327zM983 0l-332 520h-194v-520h-312v1470h578q277 0 431.5 -124t154.5 -353q0 -155 -90.5 -266t-241.5 -160l385 -567h-379zM707 1212h-250v-436h250q144 0 218 57t74 160q0 104 -74 161.5t-218 57.5z" />
    <glyph glyph-name="racute" unicode="&#x155;" horiz-adv-x="829" 
d="M641 1182h-295l205 311h328zM401 530v-530h-282v1094h260v-211q62 107 178.5 167.5t249.5 47.5v-287q-95 8 -166.5 -1.5t-127 -40.5t-84 -90.5t-28.5 -148.5z" />
    <glyph glyph-name="Rcommaaccent" unicode="&#x156;" horiz-adv-x="1425" 
d="M983 0l-332 520h-194v-520h-312v1470h578q277 0 431.5 -124t154.5 -353q0 -155 -90.5 -266t-241.5 -160l385 -567h-379zM707 1212h-250v-436h250q144 0 218 57t74 160q0 104 -74 161.5t-218 57.5zM860 -233q0 -113 -101 -183t-243 -51v107q76 -9 126 9t63 60
q-68 -17 -118 13t-50 85q0 54 41 86.5t110 32.5q76 0 124 -44t48 -115z" />
    <glyph glyph-name="rcommaaccent" unicode="&#x157;" horiz-adv-x="829" 
d="M401 530v-530h-282v1094h260v-211q62 107 178.5 167.5t249.5 47.5v-287q-95 8 -166.5 -1.5t-127 -40.5t-84 -90.5t-28.5 -148.5zM434 -233q0 -113 -101 -183t-243 -51v107q75 -9 124.5 9t61.5 60q-67 -17 -117 13t-50 85q0 54 42 86.5t111 32.5q75 0 123.5 -44t48.5 -115
z" />
    <glyph glyph-name="Rcaron" unicode="&#x158;" horiz-adv-x="1425" 
d="M872 1556h-350l-282 314h313l143 -162l148 162h311zM983 0l-332 520h-194v-520h-312v1470h578q277 0 431.5 -124t154.5 -353q0 -155 -90.5 -266t-241.5 -160l385 -567h-379zM707 1212h-250v-436h250q144 0 218 57t74 160q0 104 -74 161.5t-218 57.5z" />
    <glyph glyph-name="rcaron" unicode="&#x159;" horiz-adv-x="829" 
d="M666 1182h-353l-282 311h313l143 -162l148 162h311zM401 530v-530h-282v1094h260v-211q62 107 178.5 167.5t249.5 47.5v-287q-95 8 -166.5 -1.5t-127 -40.5t-84 -90.5t-28.5 -148.5z" />
    <glyph glyph-name="Sacute" unicode="&#x15a;" horiz-adv-x="1363" 
d="M819 1556h-295l205 314h328zM1280 457q0 -214 -160.5 -345.5t-433.5 -131.5q-276 0 -442 137t-183 372h316q5 -123 84 -194.5t219 -71.5q121 0 195.5 50.5t74.5 138.5q0 133 -196 172l-242 47q-87 17 -156.5 48t-124 79.5t-84.5 119.5t-30 160q0 196 155.5 323.5
t393.5 127.5q250 0 413 -136t178 -364h-315q-8 116 -82 187t-190 71q-110 0 -174 -54t-64 -134q0 -126 199 -164l252 -51q198 -39 297.5 -133t99.5 -254z" />
    <glyph glyph-name="sacute" unicode="&#x15b;" horiz-adv-x="1095" 
d="M696 1182h-295l205 313h330zM1038 350q0 -169 -129 -269.5t-354 -100.5q-221 0 -357 104.5t-151 288.5h270q3 -86 66 -135.5t166 -49.5q98 0 151.5 32.5t53.5 88.5q0 44 -36 70t-114 41l-198 37q-149 27 -231.5 106t-82.5 207q0 152 126 249t319 97q208 0 339 -103.5
t144 -279.5h-270q-7 81 -64 127.5t-147 46.5q-79 0 -126.5 -32.5t-47.5 -83.5q0 -43 34.5 -68t108.5 -37l209 -39q321 -61 321 -297z" />
    <glyph glyph-name="Scedilla" unicode="&#x15e;" horiz-adv-x="1363" 
d="M920 -231q0 -76 -70.5 -125.5t-179.5 -49.5q-113 0 -182.5 51t-79.5 146h174q11 -63 77 -63q30 0 49 16t19 41q0 90 -158 74l33 125q-240 20 -382 154t-159 351h316q5 -123 84 -194.5t219 -71.5q121 0 195.5 50.5t74.5 138.5q0 133 -196 172l-242 47q-87 17 -156.5 48
t-124 79.5t-84.5 119.5t-30 160q0 196 155.5 323.5t393.5 127.5q250 0 413 -136t178 -364h-315q-8 116 -82 187t-190 71q-110 0 -174 -54t-64 -134q0 -126 199 -164l252 -51q198 -39 297.5 -133t99.5 -254q0 -202 -145 -332.5t-394 -142.5l-14 -48q88 -11 140.5 -55
t52.5 -110z" />
    <glyph glyph-name="scedilla" unicode="&#x15f;" horiz-adv-x="1095" 
d="M799 -231q0 -76 -70.5 -125.5t-179.5 -49.5q-114 0 -183 51t-81 146h174q11 -63 78 -63q30 0 48.5 16t18.5 41q0 90 -155 74l32 125q-190 17 -304.5 119t-129.5 270h270q3 -86 66 -135.5t166 -49.5q98 0 151.5 32.5t53.5 88.5q0 44 -36 70t-114 41l-198 37
q-149 27 -231.5 106t-82.5 207q0 152 126 249t319 97q208 0 339 -103.5t144 -279.5h-270q-7 81 -64 127.5t-147 46.5q-79 0 -126.5 -32.5t-47.5 -83.5q0 -43 34.5 -68t108.5 -37l209 -39q321 -61 321 -297q0 -156 -110 -254.5t-307 -111.5l-17 -50q88 -11 141.5 -55.5
t53.5 -109.5z" />
    <glyph glyph-name="Scaron" unicode="&#x160;" horiz-adv-x="1363" 
d="M842 1556h-350l-283 314h313l144 -162l147 162h311zM1280 457q0 -214 -160.5 -345.5t-433.5 -131.5q-276 0 -442 137t-183 372h316q5 -123 84 -194.5t219 -71.5q121 0 195.5 50.5t74.5 138.5q0 133 -196 172l-242 47q-87 17 -156.5 48t-124 79.5t-84.5 119.5t-30 160
q0 196 155.5 323.5t393.5 127.5q250 0 413 -136t178 -364h-315q-8 116 -82 187t-190 71q-110 0 -174 -54t-64 -134q0 -126 199 -164l252 -51q198 -39 297.5 -133t99.5 -254z" />
    <glyph glyph-name="scaron" unicode="&#x161;" horiz-adv-x="1095" 
d="M721 1182h-352l-283 313h313l146 -162l145 162h314zM1038 350q0 -169 -129 -269.5t-354 -100.5q-221 0 -357 104.5t-151 288.5h270q3 -86 66 -135.5t166 -49.5q98 0 151.5 32.5t53.5 88.5q0 44 -36 70t-114 41l-198 37q-149 27 -231.5 106t-82.5 207q0 152 126 249
t319 97q208 0 339 -103.5t144 -279.5h-270q-7 81 -64 127.5t-147 46.5q-79 0 -126.5 -32.5t-47.5 -83.5q0 -43 34.5 -68t108.5 -37l209 -39q321 -61 321 -297z" />
    <glyph glyph-name="Tcedilla" unicode="&#x162;" horiz-adv-x="1267" 
d="M870 -231q0 -76 -70 -125.5t-179 -49.5q-113 0 -183 51t-82 146h176q8 -63 78 -63q11 0 15 2q23 3 37 18t14 37q0 90 -156 74l37 145h-78v1186h-465v280h1239v-280h-465v-1190h-92l-18 -66q87 -11 139.5 -55.5t52.5 -109.5z" />
    <glyph glyph-name="tcedilla" unicode="&#x163;" horiz-adv-x="878" 
d="M756 -231q0 -70 -56.5 -116t-148.5 -54q-45 -5 -55 -5q-109 3 -175.5 54t-76.5 143h110q38 -27 99 -27q19 -36 63 -30q22 3 34.5 17t12.5 34q0 90 -157 74l36 141q-166 55 -206 233q-19 74 -19 156v461h-219v244h219v323h283v-323h313v-244h-313v-430q0 -173 151 -176
q21 -3 43 0q64 6 111 32v-247q-73 -34 -143 -43q-45 -7 -84 -4l-15 -48q88 -11 140.5 -55t52.5 -110z" />
    <glyph glyph-name="Tcaron" unicode="&#x164;" horiz-adv-x="1267" 
d="M809 1556h-350l-283 314h313l144 -162l147 162h312zM788 0h-309v1190h-465v280h1239v-280h-465v-1190z" />
    <glyph glyph-name="tcaron" unicode="&#x165;" horiz-adv-x="878" 
d="M756 1155h-189v315h236zM805 29q-98 -49 -219 -49q-172 0 -270.5 96.5t-98.5 277.5v496h-219v244h219v323h283v-323h313v-244h-313v-430q0 -93 41 -135.5t121 -42.5q82 0 143 34v-247z" />
    <glyph glyph-name="Umacron" unicode="&#x16a;" horiz-adv-x="1480" 
d="M1077 1583h-669v184h669v-184zM1346 559q0 -266 -160.5 -428t-444.5 -162q-285 0 -445.5 162t-160.5 428v911h311v-917q0 -143 72.5 -224t222.5 -81q148 0 220.5 81t72.5 224v917h312v-911z" />
    <glyph glyph-name="umacron" unicode="&#x16b;" horiz-adv-x="1173" 
d="M924 1206h-670v187h670v-187zM795 0v145q-46 -75 -127 -120t-181 -45q-172 0 -275 105.5t-103 311.5v697h282v-641q0 -112 50 -167t137 -55q81 0 137.5 62t56.5 168v633h283v-1094h-260z" />
    <glyph glyph-name="Uring" unicode="&#x16e;" horiz-adv-x="1480" 
d="M1020 1798q0 -103 -80 -177.5t-199 -74.5q-120 0 -198 74t-78 178q0 107 77.5 181.5t198.5 74.5q120 0 199.5 -75t79.5 -181zM631 1798q0 -52 32 -80t78 -28q49 0 80 27.5t31 80.5q0 55 -31.5 84t-79.5 29q-46 0 -78 -29.5t-32 -83.5zM1346 559q0 -266 -160.5 -428
t-444.5 -162q-285 0 -445.5 162t-160.5 428v911h311v-917q0 -143 72.5 -224t222.5 -81q148 0 220.5 81t72.5 224v917h312v-911z" />
    <glyph glyph-name="uring" unicode="&#x16f;" horiz-adv-x="1173" 
d="M866 1423q0 -104 -79 -178t-199 -74q-121 0 -199 73.5t-78 178.5q0 106 78 180t199 74q120 0 199 -74t79 -180zM477 1423q0 -54 32 -81t79 -27q49 0 79.5 27t30.5 81q0 53 -31 82t-79 29q-46 0 -78.5 -29t-32.5 -82zM795 0v145q-46 -75 -127 -120t-181 -45
q-172 0 -275 105.5t-103 311.5v697h282v-641q0 -112 50 -167t137 -55q81 0 137.5 62t56.5 168v633h283v-1094h-260z" />
    <glyph glyph-name="Uhungarumlaut" unicode="&#x170;" horiz-adv-x="1480" 
d="M1069 1556h-278l219 314h297zM639 1556h-279l205 314h295zM1346 559q0 -266 -160.5 -428t-444.5 -162q-285 0 -445.5 162t-160.5 428v911h311v-917q0 -143 72.5 -224t222.5 -81q148 0 220.5 81t72.5 224v917h312v-911z" />
    <glyph glyph-name="uhungarumlaut" unicode="&#x171;" horiz-adv-x="1173" 
d="M915 1182h-278l219 311h297zM485 1182h-278l205 311h295zM795 0v145q-46 -75 -127 -120t-181 -45q-172 0 -275 105.5t-103 311.5v697h282v-641q0 -112 50 -167t137 -55q81 0 137.5 62t56.5 168v633h283v-1094h-260z" />
    <glyph glyph-name="Uogonek" unicode="&#x172;" horiz-adv-x="1480" 
d="M1092 -383q-70 -25 -138.5 -22t-121.5 24.5t-86 70t-33 115.5q0 87 69 166q-10 -2 -41 -2q-285 0 -445.5 162t-160.5 428v911h311v-917q0 -143 72.5 -224t222.5 -81q148 0 220.5 81t72.5 224v917h312v-911q0 -195 -88.5 -337.5t-251.5 -205.5q-72 -65 -72 -131
q0 -62 44 -84.5t114 4.5v-188z" />
    <glyph glyph-name="uogonek" unicode="&#x173;" horiz-adv-x="1173" 
d="M1026 -383q-70 -25 -138.5 -22t-121.5 24.5t-86 70t-33 115.5q0 66 38 125t110 121v94q-46 -75 -127 -120t-181 -45q-172 0 -275 105.5t-103 311.5v697h282v-641q0 -112 50 -167t137 -55q81 0 137.5 62t56.5 168v633h283v-1094h-127q-60 -56 -60 -115q0 -62 44 -84.5
t114 4.5v-188z" />
    <glyph glyph-name="Wcircumflex" unicode="&#x174;" horiz-adv-x="2007" 
d="M860 1556h-313l282 314h351l282 -314h-311l-147 162zM1278 0l-274 1028l-275 -1028h-315l-377 1470h303l238 -997l270 997h317l262 -1001l240 1001h305l-379 -1470h-315z" />
    <glyph glyph-name="wcircumflex" unicode="&#x175;" horiz-adv-x="1646" 
d="M678 1182h-313l282 311h352l283 -311h-313l-146 161zM1030 0l-207 711l-207 -711h-284l-309 1094h276l184 -693l201 693h283l194 -693l185 693h278l-313 -1094h-281z" />
    <glyph glyph-name="Ycircumflex" unicode="&#x176;" horiz-adv-x="1388" 
d="M549 1556h-313l282 314h352l281 -314h-311l-146 162zM848 553v-553h-311v553l-521 917h336l350 -632l357 632h313z" />
    <glyph glyph-name="ycircumflex" unicode="&#x177;" horiz-adv-x="1118" 
d="M416 1182h-314l285 311h350l283 -311h-311l-148 161zM1118 1094l-534 -1489h-308l154 407l-428 1082h307l273 -750l252 750h284z" />
    <glyph glyph-name="Ydieresis" unicode="&#x178;" horiz-adv-x="1388" 
d="M1112 1729q0 -76 -51 -125.5t-129 -49.5q-81 0 -132.5 49t-51.5 126t51 125.5t133 48.5q78 0 129 -49t51 -125zM639 1729q0 -77 -50.5 -126t-131.5 -49q-78 0 -130.5 49.5t-52.5 125.5t52 125t131 49q81 0 131.5 -48.5t50.5 -125.5zM848 553v-553h-311v553l-521 917h336
l350 -632l357 632h313z" />
    <glyph glyph-name="Zacute" unicode="&#x179;" horiz-adv-x="1366" 
d="M840 1556h-295l205 314h327zM1266 0h-1160v246l752 956h-747v268h1130v-249l-754 -953h779v-268z" />
    <glyph glyph-name="zacute" unicode="&#x17a;" horiz-adv-x="1091" 
d="M702 1182h-296l206 311h328zM1016 0h-932v229l563 619h-563v246h915v-234l-565 -612h582v-248z" />
    <glyph glyph-name="Zdotaccent" unicode="&#x17b;" horiz-adv-x="1366" 
d="M877 1724q0 -74 -53.5 -122t-137.5 -48t-137 48t-53 122t53 122t137 48t137.5 -48t53.5 -122zM1266 0h-1160v246l752 956h-747v268h1130v-249l-754 -953h779v-268z" />
    <glyph glyph-name="zdotaccent" unicode="&#x17c;" horiz-adv-x="1091" 
d="M737 1348q0 -73 -52.5 -120.5t-135.5 -47.5q-84 0 -137.5 47.5t-53.5 120.5q0 75 53.5 123.5t137.5 48.5q83 0 135.5 -48.5t52.5 -123.5zM1016 0h-932v229l563 619h-563v246h915v-234l-565 -612h582v-248z" />
    <glyph glyph-name="Zcaron" unicode="&#x17d;" horiz-adv-x="1366" 
d="M864 1556h-352l-283 314h314l143 -162l148 162h311zM1266 0h-1160v246l752 956h-747v268h1130v-249l-754 -953h779v-268z" />
    <glyph glyph-name="zcaron" unicode="&#x17e;" horiz-adv-x="1091" 
d="M725 1182h-350l-285 311h313l146 -162l147 162h312zM1016 0h-932v229l563 619h-563v246h915v-234l-565 -612h582v-248z" />
    <glyph glyph-name="florin" unicode="&#x192;" horiz-adv-x="1290" 
d="M664 258q-47 -201 -155 -292t-292 -91q-47 0 -115 10v260q50 -12 74 -12q173 0 213 166l66 276h-301v246h354l55 232q18 83 51 146.5t72 101.5t87.5 62t94 33t95.5 9q87 0 163 -27v-223q-45 23 -100 23q-69 0 -115 -35.5t-69 -130.5l-47 -191h280v-246h-336z" />
    <glyph glyph-name="Scommaaccent" unicode="&#x218;" horiz-adv-x="1363" 
d="M1280 457q0 -214 -160.5 -345.5t-433.5 -131.5q-276 0 -442 137t-183 372h316q5 -123 84 -194.5t219 -71.5q121 0 195.5 50.5t74.5 138.5q0 133 -196 172l-242 47q-87 17 -156.5 48t-124 79.5t-84.5 119.5t-30 160q0 196 155.5 323.5t393.5 127.5q250 0 413 -136
t178 -364h-315q-8 116 -82 187t-190 71q-110 0 -174 -54t-64 -134q0 -126 199 -164l252 -51q198 -39 297.5 -133t99.5 -254zM846 -233q0 -113 -101 -183t-243 -51v107q76 -9 126 9t62 60q-68 -17 -118 13t-50 85q0 54 41.5 86.5t110.5 32.5q76 0 124 -44t48 -115z" />
    <glyph glyph-name="scommaaccent" unicode="&#x219;" horiz-adv-x="1095" 
d="M1038 350q0 -169 -129 -269.5t-354 -100.5q-221 0 -357 104.5t-151 288.5h270q3 -86 66 -135.5t166 -49.5q98 0 151.5 32.5t53.5 88.5q0 44 -36 70t-114 41l-198 37q-149 27 -231.5 106t-82.5 207q0 152 126 249t319 97q208 0 339 -103.5t144 -279.5h-270
q-7 81 -64 127.5t-147 46.5q-79 0 -126.5 -32.5t-47.5 -83.5q0 -43 34.5 -68t108.5 -37l209 -39q321 -61 321 -297zM725 -233q0 -113 -101 -183t-243 -51v107q75 -9 124.5 9t61.5 60q-67 -17 -117.5 13t-50.5 85q0 54 42.5 86.5t111.5 32.5q75 0 123.5 -44t48.5 -115z" />
    <glyph glyph-name="Tcommaaccent" unicode="&#x21a;" horiz-adv-x="1267" 
d="M788 0h-309v1190h-465v280h1239v-280h-465v-1190zM797 -233q0 -113 -101 -183t-243 -51v107q76 -9 125.5 9t62.5 60q-68 -17 -118 13t-50 85q0 54 41.5 86.5t110.5 32.5q76 0 124 -44t48 -115z" />
    <glyph glyph-name="tcommaaccent" unicode="&#x21b;" horiz-adv-x="878" 
d="M805 29q-98 -49 -219 -49q-172 0 -270.5 96.5t-98.5 277.5v496h-219v244h219v323h283v-323h313v-244h-313v-430q0 -93 41 -135.5t121 -42.5q82 0 143 34v-247zM682 -233q0 -113 -101 -183t-241 -51v107q75 -9 124.5 9t61.5 60q-68 -17 -118 13t-50 85q0 54 41.5 86.5
t110.5 32.5q76 0 124 -44t48 -115z" />
    <glyph glyph-name="dotlessj" unicode="&#x237;" horiz-adv-x="540" 
d="M412 4q0 -211 -112 -315.5t-296 -104.5q-84 0 -154 23v264q48 -25 119 -25q73 0 116.5 40t43.5 126v1082h283v-1090z" />
    <glyph glyph-name="circumflex" unicode="&#x2c6;" horiz-adv-x="1024" 
d="M367 1157h-314l285 313h350l283 -313h-312l-147 162z" />
    <glyph glyph-name="caron" unicode="&#x2c7;" horiz-adv-x="1024" 
d="M688 1157h-350l-285 313h314l145 -161l147 161h312z" />
    <glyph glyph-name="macronmod" unicode="&#x2c9;" horiz-adv-x="1024" 
d="M848 1184h-670v184h670v-184z" />
    <glyph glyph-name="breve" unicode="&#x2d8;" horiz-adv-x="1024" 
d="M868 1470q0 -147 -96 -234t-260 -87q-165 0 -260.5 87t-95.5 234h202q0 -66 41.5 -103.5t112.5 -37.5q72 0 113 37.5t41 103.5h202z" />
    <glyph glyph-name="dotaccent" unicode="&#x2d9;" horiz-adv-x="1024" 
d="M700 1325q0 -74 -53 -122t-137 -48q-83 0 -135.5 48t-52.5 122t52.5 122t135.5 48q84 0 137 -48t53 -122z" />
    <glyph glyph-name="ring" unicode="&#x2da;" horiz-adv-x="1024" 
d="M791 1399q0 -103 -80 -177.5t-199 -74.5q-120 0 -198 74t-78 178q0 107 77.5 181.5t198.5 74.5q120 0 199.5 -75t79.5 -181zM399 1399q0 -52 33.5 -80.5t79.5 -28.5q48 0 79.5 28t31.5 81q0 55 -31.5 83.5t-79.5 28.5q-46 0 -79.5 -29t-33.5 -83z" />
    <glyph glyph-name="ogonek" unicode="&#x2db;" horiz-adv-x="1024" 
d="M600 -195v-188q-70 -25 -137.5 -22t-121 24.5t-86 70t-32.5 115.5q0 48 18 91t59 89t83 82.5t115 94.5l80 -88q-136 -91 -136 -189q0 -62 44.5 -84.5t113.5 4.5z" />
    <glyph glyph-name="tilde" unicode="&#x2dc;" horiz-adv-x="1024" 
d="M307 1149h-174q-23 143 38 232t175 89q58 0 118.5 -25.5t108.5 -51t74 -25.5q71 0 66 117h174q23 -138 -39 -229t-176 -91q-58 0 -118 25.5t-107.5 50.5t-73.5 25q-69 0 -66 -117z" />
    <glyph glyph-name="hungarumlaut" unicode="&#x2dd;" horiz-adv-x="1024" 
d="M838 1157h-279l221 313h297zM410 1157h-279l205 313h295z" />
    <glyph glyph-name="gravecomb" unicode="&#x300;" 
d="M-481 1182h-295l-238 311h330z" />
    <glyph glyph-name="acutecomb" unicode="&#x301;" 
d="M-471 1182h-295l205 311h330z" />
    <glyph glyph-name="circumflexcomb" unicode="&#x302;" 
d="M-768 1182h-313l282 311h353l280 -311h-311l-146 161z" />
    <glyph glyph-name="tildecomb" unicode="&#x303;" 
d="M-831 1176h-175q-23 141 38 230t175 89q59 0 120 -25t108 -50t73 -25q71 0 66 116h176q22 -139 -40 -229t-177 -90q-57 0 -117 25t-107.5 50t-74.5 25q-68 0 -65 -116z" />
    <glyph glyph-name="macroncomb" unicode="&#x304;" 
d="M-287 1206h-671v187h671v-187z" />
    <glyph glyph-name="brevecomb" unicode="&#x306;" 
d="M-268 1493q0 -147 -95.5 -234.5t-259.5 -87.5q-165 0 -260.5 87.5t-95.5 234.5h201q0 -66 42 -103.5t113 -37.5t112.5 37.5t41.5 103.5h201z" />
    <glyph glyph-name="dotaccentcomb" unicode="&#x307;" 
d="M-434 1348q0 -73 -53.5 -120.5t-137.5 -47.5t-137 47.5t-53 120.5q0 75 53 123.5t137 48.5t137.5 -48.5t53.5 -123.5z" />
    <glyph glyph-name="dieresiscomb" unicode="&#x308;" 
d="M-205 1352q0 -75 -51 -123.5t-129 -48.5q-81 0 -132.5 48.5t-51.5 123.5q0 78 51 126t133 48q79 0 129.5 -48.5t50.5 -125.5zM-676 1352q0 -76 -50.5 -124t-133.5 -48q-78 0 -129 48.5t-51 123.5q0 77 50.5 125.5t129.5 48.5q83 0 133.5 -48t50.5 -126z" />
    <glyph glyph-name="ringcomb" unicode="&#x30a;" 
d="M-344 1423q0 -104 -79.5 -178t-199.5 -74q-121 0 -198.5 73.5t-77.5 178.5q0 106 77.5 180t198.5 74q120 0 199.5 -74t79.5 -180zM-735 1423q0 -53 32.5 -80.5t79.5 -27.5q48 0 79.5 27t31.5 81q0 53 -32 82t-79 29q-46 0 -79 -29t-33 -82z" />
    <glyph glyph-name="hungarumlautcomb" unicode="&#x30b;" 
d="M-297 1182h-278l221 311h295zM-725 1182h-279l205 311h293z" />
    <glyph glyph-name="caroncomb" unicode="&#x30c;" 
d="M-446 1182h-353l-282 311h313l145 -162l146 162h311z" />
    <glyph glyph-name="commaturnedabovecomb" unicode="&#x312;" 
d="M-463 1286q0 -54 -41 -85.5t-110 -31.5q-75 0 -123.5 44t-48.5 114q0 114 101 183.5t243 50.5v-105q-76 8 -126.5 -11t-62.5 -61q68 18 118 -12.5t50 -85.5z" />
    <glyph glyph-name="commaaccentcomb" unicode="&#x326;" 
d="M-461 -233q0 -113 -101 -183t-241 -51v107q75 -9 125 9t62 60q-67 -17 -117.5 13t-50.5 85q0 54 41 86.5t110 32.5q76 0 124 -44t48 -115z" />
    <glyph glyph-name="cedillacomb" unicode="&#x327;" 
d="M-385 -231q0 -77 -71 -126t-181 -49q-113 0 -181.5 51t-80.5 146h174q11 -63 78 -63q30 0 48.5 16t18.5 41q0 90 -157 74l47 174h139l-29 -99q88 -11 141.5 -55.5t53.5 -109.5z" />
    <glyph glyph-name="ogonekcomb" unicode="&#x328;" 
d="M-393 -195v-188q-70 -25 -138 -22t-121.5 24.5t-86.5 70t-33 115.5q0 48 18 91t58.5 89t83 83t114.5 94l82 -88q-135 -91 -135 -189q0 -62 44.5 -84.5t113.5 4.5z" />
    <glyph glyph-name="strokeshortcomb" unicode="&#x335;" 
d="M-322 1184h-737v184h737v-184z" />
    <glyph glyph-name="slashshortcomb" unicode="&#x337;" 
d="M-291 692l-667 -153v233l667 156v-236z" />
    <glyph glyph-name="slashlongcomb" unicode="&#x338;" 
d="M-920 0h-217l813 1071h215z" />
    <glyph glyph-name="Delta" unicode="&#x394;" horiz-adv-x="1476" 
d="M1452 0h-1427l555 1470h321zM731 1153l-325 -907h647z" />
    <glyph glyph-name="Omega" unicode="&#x3a9;" horiz-adv-x="1492" 
d="M666 0h-607v266l371 -20v78q-178 74 -279.5 214.5t-101.5 342.5q0 126 50.5 238t140.5 194t222 130t286 48q153 0 284 -48t220.5 -130t139.5 -194t50 -238q0 -202 -101 -342t-280 -215v-78l371 20v-266h-605v457q149 38 231.5 140t82.5 243q0 167 -105.5 279t-287.5 112
q-183 0 -289.5 -112t-106.5 -279q0 -141 82.5 -243t231.5 -140v-457z" />
    <glyph glyph-name="mu" unicode="&#x3bc;" horiz-adv-x="1214" 
d="M590 -20q-143 0 -215 81l24 -456h-280v1489h282v-621q0 -242 209 -242q96 0 149.5 67t53.5 169v627h283v-1094h-279v117q-32 -63 -93.5 -100t-133.5 -37z" />
    <glyph glyph-name="pi" unicode="&#x3c0;" horiz-adv-x="1286" 
d="M1212 8q-74 -28 -168 -28q-164 0 -243.5 82t-79.5 280v508h-223l-56 -850h-282l80 850h-242v244h1225v-244h-219v-447q0 -83 30.5 -118t95.5 -35q54 0 82 14v-256z" />
    <glyph glyph-name="Wgrave" unicode="&#x1e80;" horiz-adv-x="2007" 
d="M1147 1556h-295l-240 314h330zM1278 0l-274 1028l-275 -1028h-315l-377 1470h303l238 -997l270 997h317l262 -1001l240 1001h305l-379 -1470h-315z" />
    <glyph glyph-name="wgrave" unicode="&#x1e81;" horiz-adv-x="1646" 
d="M965 1182h-295l-238 311h330zM1030 0l-207 711l-207 -711h-284l-309 1094h276l184 -693l201 693h283l194 -693l185 693h278l-313 -1094h-281z" />
    <glyph glyph-name="Wacute" unicode="&#x1e82;" horiz-adv-x="2007" 
d="M1157 1556h-295l205 314h328zM1278 0l-274 1028l-275 -1028h-315l-377 1470h303l238 -997l270 997h317l262 -1001l240 1001h305l-379 -1470h-315z" />
    <glyph glyph-name="wacute" unicode="&#x1e83;" horiz-adv-x="1646" 
d="M977 1182h-297l205 311h329zM1030 0l-207 711l-207 -711h-284l-309 1094h276l184 -693l201 693h283l194 -693l185 693h278l-313 -1094h-281z" />
    <glyph glyph-name="Wdieresis" unicode="&#x1e84;" horiz-adv-x="2007" 
d="M1423 1729q0 -76 -51.5 -125.5t-128.5 -49.5q-81 0 -132.5 49t-51.5 126t51 125.5t133 48.5q77 0 128.5 -49t51.5 -125zM950 1729q0 -77 -50.5 -126t-133.5 -49q-77 0 -128.5 49.5t-51.5 125.5t51.5 125t128.5 49q83 0 133.5 -48.5t50.5 -125.5zM1278 0l-274 1028
l-275 -1028h-315l-377 1470h303l238 -997l270 997h317l262 -1001l240 1001h305l-379 -1470h-315z" />
    <glyph glyph-name="wdieresis" unicode="&#x1e85;" horiz-adv-x="1646" 
d="M1241 1352q0 -75 -51 -123.5t-129 -48.5q-81 0 -132.5 48.5t-51.5 123.5q0 78 51 126t133 48q79 0 129.5 -48.5t50.5 -125.5zM770 1352q0 -76 -50.5 -124t-133.5 -48q-78 0 -129 48.5t-51 123.5q0 77 50.5 125.5t129.5 48.5q83 0 133.5 -48t50.5 -126zM1030 0l-207 711
l-207 -711h-284l-309 1094h276l184 -693l201 693h283l194 -693l185 693h278l-313 -1094h-281z" />
    <glyph glyph-name="Ygrave" unicode="&#x1ef2;" horiz-adv-x="1388" 
d="M836 1556h-295l-240 314h332zM848 553v-553h-311v553l-521 917h336l350 -632l357 632h313z" />
    <glyph glyph-name="ygrave" unicode="&#x1ef3;" horiz-adv-x="1118" 
d="M705 1182h-297l-238 311h330zM1118 1094l-534 -1489h-308l154 407l-428 1082h307l273 -750l252 750h284z" />
    <glyph glyph-name="endash" unicode="&#x2013;" horiz-adv-x="1024" 
d="M983 438h-942v248h942v-248z" />
    <glyph glyph-name="emdash" unicode="&#x2014;" horiz-adv-x="1536" 
d="M1495 438h-1454v248h1454v-248z" />
    <glyph glyph-name="quoteleft" unicode="&#x2018;" horiz-adv-x="612" 
d="M109 1133q0 105 59 190.5t158.5 127t210.5 26.5v-144q-92 12 -156 -21t-84 -104q83 21 144 -24.5t61 -120.5q0 -73 -51.5 -118.5t-135.5 -45.5q-94 0 -150 63t-56 171z" />
    <glyph glyph-name="quoteright" unicode="&#x2019;" horiz-adv-x="612" 
d="M504 1251q0 -80 -35 -149.5t-92.5 -116t-136 -68t-162.5 -10.5v142q92 -11 155 22.5t82 104.5q-83 -23 -142.5 22.5t-59.5 122.5q0 73 50.5 118.5t133.5 45.5q94 0 150.5 -63t56.5 -171z" />
    <glyph glyph-name="quotesinglbase" unicode="&#x201a;" horiz-adv-x="612" 
d="M504 143q0 -80 -35 -149.5t-92.5 -116t-136 -68t-162.5 -10.5v142q92 -11 155 22.5t82 104.5q-83 -23 -142.5 22t-59.5 121q0 74 50.5 119t133.5 45q95 0 151 -62t56 -170z" />
    <glyph glyph-name="quotedblleft" unicode="&#x201c;" horiz-adv-x="1107" 
d="M109 1133q0 105 59 190.5t158.5 127t210.5 26.5v-144q-92 12 -156 -21t-84 -104q83 21 144 -24.5t61 -120.5q0 -73 -51.5 -118.5t-135.5 -45.5q-94 0 -150 63t-56 171zM604 1133q0 105 58.5 190.5t157.5 127t210 26.5v-144q-91 12 -154.5 -21.5t-82.5 -103.5
q83 21 142.5 -24t59.5 -121q0 -73 -50.5 -118.5t-133.5 -45.5q-94 0 -150.5 63t-56.5 171z" />
    <glyph glyph-name="quotedblright" unicode="&#x201d;" horiz-adv-x="1107" 
d="M504 1251q0 -80 -35 -149.5t-92.5 -116t-136 -68t-162.5 -10.5v142q92 -11 155 22.5t82 104.5q-83 -23 -142.5 22.5t-59.5 122.5q0 73 50.5 118.5t133.5 45.5q94 0 150.5 -63t56.5 -171zM999 1251q0 -80 -35 -149.5t-93.5 -116t-137 -68t-162.5 -10.5v142
q93 -11 156.5 22.5t83.5 104.5q-83 -23 -144 22.5t-61 122.5q0 73 51.5 118.5t135.5 45.5q94 0 150 -63t56 -171z" />
    <glyph glyph-name="quotedblbase" unicode="&#x201e;" horiz-adv-x="1107" 
d="M504 143q0 -80 -35 -149.5t-92.5 -116t-136 -68t-162.5 -10.5v142q92 -11 155 22.5t82 104.5q-83 -23 -142.5 22t-59.5 121q0 74 50.5 119t133.5 45q95 0 151 -62t56 -170zM999 143q0 -80 -35 -149.5t-93.5 -116t-137 -68t-162.5 -10.5v142q93 -11 156.5 22.5t83.5 104.5
q-83 -23 -144 22t-61 121q0 74 51 119t136 45q94 0 150 -62t56 -170z" />
    <glyph glyph-name="dagger" unicode="&#x2020;" horiz-adv-x="1351" 
d="M809 -395h-266v1239h-379v248h379v378h266v-378h379v-248h-379v-1239z" />
    <glyph glyph-name="daggerdbl" unicode="&#x2021;" horiz-adv-x="1351" 
d="M809 -395h-266v379h-379v247h379v613h-379v248h379v378h266v-378h379v-248h-379v-613h379v-247h-379v-379z" />
    <glyph glyph-name="bullet" unicode="&#x2022;" horiz-adv-x="1024" 
d="M864 539q0 -152 -100 -251.5t-254 -99.5q-152 0 -251 99.5t-99 251.5q0 157 99 257.5t251 100.5q154 0 254 -101t100 -257z" />
    <glyph glyph-name="ellipsis" unicode="&#x2026;" horiz-adv-x="2048" 
d="M532 182q0 -85 -52.5 -138.5t-137.5 -53.5t-138.5 53.5t-53.5 138.5q0 86 53.5 140.5t138.5 54.5t137.5 -54.5t52.5 -140.5zM1214 182q0 -85 -52.5 -138.5t-137.5 -53.5t-139 53.5t-54 138.5q0 86 54 140.5t139 54.5t137.5 -54.5t52.5 -140.5zM1896 182
q0 -85 -52.5 -138.5t-137.5 -53.5t-139 53.5t-54 138.5q0 86 54 140.5t139 54.5t137.5 -54.5t52.5 -140.5z" />
    <glyph glyph-name="perthousand" unicode="&#x2030;" horiz-adv-x="3223" 
d="M936 967q0 -117 -58 -215.5t-161.5 -156.5t-229.5 -58q-190 0 -319 125.5t-129 304.5q0 180 128.5 305t319.5 125q192 0 320.5 -125t128.5 -305zM827 0h-225l787 1384h225zM270 967q0 -109 62.5 -169.5t154.5 -60.5q93 0 155.5 60.5t62.5 169.5t-62.5 169t-155.5 60
q-92 0 -154.5 -60t-62.5 -169zM2212 412q0 -179 -129.5 -304.5t-321.5 -125.5q-190 0 -319 125.5t-129 304.5q0 180 128.5 305t319.5 125q192 0 321.5 -125t129.5 -305zM3185 412q0 -117 -58 -215.5t-161.5 -156.5t-229.5 -58q-190 0 -319 125.5t-129 304.5q0 180 128.5 305
t319.5 125q192 0 320.5 -125t128.5 -305zM1544 412q0 -109 62.5 -168.5t154.5 -59.5q93 0 155 59.5t62 168.5q0 110 -62 169.5t-155 59.5q-92 0 -154.5 -59.5t-62.5 -169.5zM2519 412q0 -109 62.5 -168.5t154.5 -59.5q93 0 155 59.5t62 168.5q0 110 -62 169.5t-155 59.5
q-92 0 -154.5 -59.5t-62.5 -169.5z" />
    <glyph glyph-name="guilsinglleft" unicode="&#x2039;" horiz-adv-x="716" 
d="M643 127h-311l-299 420l299 420h311l-281 -420z" />
    <glyph glyph-name="guilsinglright" unicode="&#x203a;" horiz-adv-x="716" 
d="M385 127h-313l282 420l-282 420h313l297 -420z" />
    <glyph glyph-name="fraction" unicode="&#x2044;" horiz-adv-x="266" 
d="M-147 0h-226l787 1384h225z" />
    <glyph glyph-name="zero.superior" unicode="&#x2070;" horiz-adv-x="835" 
d="M774 1468q0 -204 -92.5 -315t-263.5 -111q-173 0 -265 110.5t-92 315.5q0 207 93 318.5t264 111.5t263.5 -111.5t92.5 -318.5zM254 1468q0 -126 42 -192t122 -66t122 66t42 192q0 127 -42 195t-122 68q-78 0 -121 -68.5t-43 -194.5z" />
    <glyph glyph-name="four.superior" unicode="&#x2074;" horiz-adv-x="798" 
d="M760 1212h-129v-157h-189v157h-436v140l475 534h150v-510h129v-164zM223 1376h219v252z" />
    <glyph glyph-name="five.superior" unicode="&#x2075;" horiz-adv-x="794" 
d="M741 1327q0 -114 -92 -199.5t-256 -85.5q-147 0 -245.5 76.5t-102.5 194.5h188q7 -50 50 -76.5t110 -26.5q77 0 116.5 35.5t39.5 83.5q0 47 -41.5 83t-120.5 36q-116 0 -158 -80l-153 51l82 467h530v-168h-397l-27 -147q68 39 154 39q79 0 142.5 -24t102 -64.5
t58.5 -90.5t20 -104z" />
    <glyph glyph-name="six.superior" unicode="&#x2076;" horiz-adv-x="782" 
d="M745 1333q0 -122 -100 -205.5t-256 -83.5q-152 0 -253 82t-101 195q0 76 27 134.5t94 131.5l276 299h213l-262 -289q41 5 86 2q125 -15 200.5 -87.5t75.5 -178.5zM231 1327q0 -59 46.5 -91t115.5 -32q68 0 113 32t45 91q0 62 -45 94.5t-113 32.5q-70 0 -116 -31.5
t-46 -95.5z" />
    <glyph glyph-name="seven.superior" unicode="&#x2077;" horiz-adv-x="677" 
d="M662 1776l-343 -721h-200l330 663h-435v168h648v-110z" />
    <glyph glyph-name="eight.superior" unicode="&#x2078;" horiz-adv-x="811" 
d="M760 1298q0 -111 -98 -182.5t-256 -71.5t-256.5 71.5t-98.5 182.5q0 63 41 111.5t111 77.5q-121 61 -121 170q0 104 90.5 172.5t233.5 68.5q141 0 231 -68.5t90 -172.5q0 -106 -117 -170q68 -29 109 -77.5t41 -111.5zM276 1649q0 -41 35.5 -65.5t94.5 -24.5
q60 0 94.5 24.5t34.5 65.5q0 47 -34.5 73.5t-94.5 26.5q-59 0 -94.5 -26.5t-35.5 -73.5zM246 1303q0 -51 43 -80t117 -29t117.5 29t43.5 80q0 48 -44 77t-117 29t-116.5 -29t-43.5 -77z" />
    <glyph glyph-name="nine.superior" unicode="&#x2079;" horiz-adv-x="782" 
d="M627 1356l-277 -299h-213l262 286q-46 -3 -86 0q-125 15 -200.5 88t-75.5 179q0 27 4 41q15 107 112 177t240 70q152 0 253.5 -81.5t101.5 -194.5q0 -76 -27 -134.5t-94 -131.5zM231 1616q0 -63 44.5 -95t113.5 -32q70 0 116 31.5t46 95.5q0 59 -46.5 91t-115.5 32
q-68 0 -113 -32t-45 -91z" />
    <glyph glyph-name="zero.inferior" unicode="&#x2080;" horiz-adv-x="835" 
d="M774 -2q0 -204 -92.5 -315t-263.5 -111q-173 0 -265 110.5t-92 315.5q0 207 93 318.5t264 111.5t263.5 -111.5t92.5 -318.5zM254 -2q0 -126 42 -192t122 -66t122 66t42 192q0 127 -42 194.5t-122 67.5q-78 0 -121 -68t-43 -194z" />
    <glyph glyph-name="one.inferior" unicode="&#x2081;" horiz-adv-x="509" 
d="M389 -416h-190v668h-172v164h362v-832z" />
    <glyph glyph-name="two.inferior" unicode="&#x2082;" horiz-adv-x="731" 
d="M694 -248v-168h-643l2 107l279 252q85 76 118 118t33 93q0 44 -37 75t-98 31q-67 0 -104 -32t-37 -91h-182q0 129 94 210t241 81q145 0 232.5 -75t87.5 -175q0 -79 -45.5 -143t-161.5 -166l-123 -117h344z" />
    <glyph glyph-name="three.inferior" unicode="&#x2083;" horiz-adv-x="815" 
d="M754 -166q0 -117 -98 -188.5t-255 -71.5q-149 0 -244.5 72t-95.5 186h183q4 -52 46.5 -80t112.5 -28q73 0 114.5 28t41.5 78q0 49 -47.5 76.5t-132.5 27.5h-100v150h90q69 0 109 26t40 72q0 44 -34.5 70.5t-92.5 26.5q-59 0 -93 -29.5t-36 -77.5h-182q2 108 93.5 182
t225.5 74q143 0 228.5 -64t85.5 -167q0 -109 -129 -177q81 -25 125.5 -73t44.5 -113z" />
    <glyph glyph-name="four.inferior" unicode="&#x2084;" horiz-adv-x="798" 
d="M760 -258h-129v-158h-189v158h-436v139l475 535h150v-510h129v-164zM223 -94h219v252z" />
    <glyph glyph-name="five.inferior" unicode="&#x2085;" horiz-adv-x="794" 
d="M741 -143q0 -114 -92 -199.5t-256 -85.5q-147 0 -245.5 76t-102.5 194h188q7 -50 49.5 -76t110.5 -26q77 0 116.5 35.5t39.5 83.5q0 46 -41.5 82t-120.5 36q-116 0 -158 -79l-153 51l82 467h530v-168h-397l-27 -148q68 39 154 39q79 0 142.5 -24t102 -64.5t58.5 -90
t20 -103.5z" />
    <glyph glyph-name="six.inferior" unicode="&#x2086;" horiz-adv-x="782" 
d="M745 -137q0 -122 -100 -205.5t-256 -83.5q-152 0 -253 81.5t-101 194.5q0 76 27 135t94 132l276 299h213l-262 -289q41 5 86 2q125 -15 200.5 -87.5t75.5 -178.5zM231 -143q0 -59 46.5 -91t115.5 -32q68 0 113 32t45 91q0 62 -45 94.5t-113 32.5q-70 0 -116 -31.5
t-46 -95.5z" />
    <glyph glyph-name="seven.inferior" unicode="&#x2087;" horiz-adv-x="677" 
d="M662 305l-343 -721h-200l330 664h-435v168h648v-111z" />
    <glyph glyph-name="eight.inferior" unicode="&#x2088;" horiz-adv-x="811" 
d="M760 -172q0 -111 -98 -182.5t-256 -71.5t-256.5 71.5t-98.5 182.5q0 63 41 111t111 77q-121 60 -121 170q0 104 90.5 173t233.5 69q141 0 231 -69t90 -173q0 -106 -117 -170q150 -65 150 -188zM276 178q0 -41 35.5 -65.5t94.5 -24.5q60 0 94.5 24.5t34.5 65.5
q0 47 -34.5 74t-94.5 27q-59 0 -94.5 -27t-35.5 -74zM246 -168q0 -51 43 -79.5t117 -28.5t117.5 28.5t43.5 79.5q0 48 -44 77.5t-117 29.5t-116.5 -29.5t-43.5 -77.5z" />
    <glyph glyph-name="nine.inferior" unicode="&#x2089;" horiz-adv-x="782" 
d="M627 -115l-277 -299h-213l262 287q-46 -3 -86 0q-125 15 -200.5 87.5t-75.5 178.5q0 27 4 41q15 108 112 178t240 70q152 0 253.5 -81.5t101.5 -194.5q0 -76 -27 -135t-94 -132zM231 145q0 -63 44.5 -95t113.5 -32q70 0 116 31.5t46 95.5q0 59 -46.5 91t-115.5 32
q-68 0 -113 -32t-45 -91z" />
    <glyph glyph-name="Euro" unicode="&#x20ac;" horiz-adv-x="1257" 
d="M1184 39q-113 -59 -289 -59q-237 0 -401.5 130t-221.5 361h-219v170h193q-2 16 -2 53q0 49 2 74h-193v168h221q60 221 224 345t397 124q178 0 289 -53v-269q-115 68 -258 68q-123 0 -210.5 -55t-133.5 -160h411v-168h-469q-4 -25 -4 -74q0 -37 2 -53h471v-170h-418
q44 -114 134.5 -174.5t216.5 -60.5q156 0 258 65v-262z" />
    <glyph glyph-name="indianrupee" unicode="&#x20b9;" horiz-adv-x="1257" 
d="M1212 848h-200q-20 -121 -100.5 -205.5t-204.5 -120.5l358 -522h-317l-314 492h-346v200h356q109 0 178 40.5t93 115.5h-627v182h625q-23 74 -92 114t-177 40h-356v200h1124v-184h-338q103 -62 125 -170h213v-182z" />
    <glyph glyph-name="turkishlira" unicode="&#x20ba;" horiz-adv-x="1351" 
d="M1290 580q-10 -175 -105 -311.5t-252 -210.5t-349 -74q-137 0 -219 26v537l-242 -60v181l242 59v129l-242 -59v182l242 59v346h286v-278l439 108v-182l-439 -108v-127l439 106v-180l-439 -109v-387q161 6 263.5 101.5t111.5 251.5h264z" />
    <glyph glyph-name="ruble" unicode="&#x20bd;" horiz-adv-x="1257" 
d="M1174 256h-586v-256h-287v256h-266v184h266v129h-266v185h266v630h426q231 0 361.5 -103t130.5 -298q0 -194 -140 -304t-383 -110h-108v-129h586v-184zM694 1182h-106v-428h112q124 0 185 56t61 157q0 215 -252 215z" />
    <glyph glyph-name="trademark" unicode="&#x2122;" horiz-adv-x="1660" 
d="M432 750h-186v550h-219v170h626v-170h-221v-550zM1069 750l-186 516v-516h-166v720h282l156 -469l156 469h278v-720h-176v510l-182 -510h-162z" />
    <glyph glyph-name="estimated" unicode="&#x212e;" horiz-adv-x="1705" 
d="M1530 279q-112 -150 -279 -224.5t-374 -74.5q-178 0 -332.5 59t-262.5 160t-169.5 239.5t-61.5 294.5q0 144 62 281t168 241.5t256.5 168t316.5 63.5q170 0 315.5 -57.5t248.5 -160t165 -246t72 -312.5h-1256q-43 0 -43 -45v-347q0 -79 76.5 -145.5t196 -102.5t248.5 -36
q194 0 341.5 63t225.5 181h86zM356 807q0 -45 43 -45h910q23 0 32 10.5t9 34.5v346q0 71 -70 136.5t-185.5 105t-240.5 39.5q-124 0 -240 -38.5t-187 -101t-71 -129.5v-358z" />
    <glyph glyph-name="partialdiff" unicode="&#x2202;" horiz-adv-x="1232" 
d="M1180 528q0 -107 -41.5 -206.5t-114.5 -175t-179.5 -121t-228.5 -45.5q-164 0 -293.5 74.5t-199.5 200t-70 277.5q0 168 83 295t222.5 184.5t305.5 35.5l-326 423h319l332 -432q107 -143 149 -252.5t42 -257.5zM344 537q0 -144 76.5 -224t195.5 -80q116 0 192.5 78
t76.5 219q0 146 -77 228t-192 82q-119 0 -195.5 -79.5t-76.5 -223.5z" />
    <glyph glyph-name="increment" unicode="&#x2206;" horiz-adv-x="1476" 
d="M1452 0h-1427l555 1470h321zM731 1153l-325 -907h647z" />
    <glyph glyph-name="product" unicode="&#x220f;" horiz-adv-x="1538" 
d="M440 -395h-295v1865h1248v-1865h-293v1612h-660v-1612z" />
    <glyph glyph-name="summation" unicode="&#x2211;" horiz-adv-x="1368" 
d="M1268 -395h-1168v231l570 717l-547 682v235h1134v-253h-770l529 -666l-555 -692h807v-254z" />
    <glyph glyph-name="minus" unicode="&#x2212;" horiz-adv-x="1351" 
d="M1188 575h-1024v246h1024v-246z" />
    <glyph glyph-name="divisionslash" unicode="&#x2215;" horiz-adv-x="1351" 
d="M516 0h-264l584 1384h264z" />
    <glyph glyph-name="bulletoperator" unicode="&#x2219;" horiz-adv-x="1351" 
d="M866 696q0 -85 -52.5 -138.5t-137.5 -53.5t-139 53.5t-54 138.5q0 87 54 142t139 55t137.5 -54.5t52.5 -142.5z" />
    <glyph glyph-name="radical" unicode="&#x221a;" horiz-adv-x="1787" 
d="M1772 1470l-678 -1865h-322l-307 831h-301v254h524l252 -747l537 1527h295z" />
    <glyph glyph-name="infinity" unicode="&#x221e;" horiz-adv-x="2220" 
d="M2167 547q0 -249 -148 -408t-383 -159q-90 0 -169 25t-143 73t-115 103.5t-101 129.5q-102 -154 -228.5 -242.5t-297.5 -88.5q-234 0 -381.5 159.5t-147.5 407.5q0 250 147.5 408.5t381.5 158.5q89 0 168 -25t143.5 -72.5t115.5 -103.5t101 -129q49 73 99.5 129
t114.5 103.5t143 72.5t169 25q236 0 383.5 -158.5t147.5 -408.5zM348 547q0 -141 74 -228.5t196 -87.5q111 0 197.5 85.5t161.5 230.5q-35 68 -70.5 121t-79.5 99t-97.5 70.5t-111.5 24.5q-122 0 -196 -87.5t-74 -227.5zM1243 547q158 -316 356 -316q124 0 198.5 87.5
t74.5 228.5q0 142 -74.5 228.5t-198.5 86.5q-200 0 -356 -315z" />
    <glyph glyph-name="integral" unicode="&#x222b;" horiz-adv-x="1024" 
d="M653 -14q0 -103 -31.5 -181.5t-88.5 -126t-130 -71t-161 -23.5q-81 0 -154 23v264q52 -25 119 -25q74 0 118 38.5t44 123.5v1116q0 93 30.5 164.5t85 114.5t123 64.5t148.5 21.5q97 0 180 -33v-217q-54 29 -123 29q-67 0 -113.5 -38.5t-46.5 -111.5v-1132z" />
    <glyph glyph-name="approxequal" unicode="&#x2248;" horiz-adv-x="1351" 
d="M1233 1151q29 -186 -58 -304t-247 -118q-66 0 -142 25.5t-131.5 56.5t-113 56.5t-90.5 25.5q-54 0 -78 -37.5t-23 -130.5h-231q-27 186 61 305t246 119q66 0 142 -26t131 -57t112.5 -57t91.5 -26q54 0 77.5 37.5t20.5 130.5h232zM1233 676q29 -187 -58 -305.5
t-247 -118.5q-66 0 -142 26t-131.5 57t-113 57t-90.5 26q-54 0 -78 -37.5t-23 -130.5h-231q-27 186 60.5 304t246.5 118q66 0 142 -25.5t131 -56.5t112.5 -56.5t91.5 -25.5q54 0 77.5 37.5t20.5 130.5h232z" />
    <glyph glyph-name="notequal" unicode="&#x2260;" horiz-adv-x="1351" 
d="M1188 338h-524l-148 -338h-264l147 338h-235v246h332l100 229h-432v248h528l144 323h264l-146 -323h234v-248h-328l-100 -229h428v-246z" />
    <glyph glyph-name="lessequal" unicode="&#x2264;" horiz-adv-x="1351" 
d="M1188 326l-1024 417v226l1024 417v-247l-737 -283l737 -285v-245zM1188 0h-1024v248h1024v-248z" />
    <glyph glyph-name="greaterequal" unicode="&#x2265;" horiz-adv-x="1351" 
d="M1188 743l-1024 -417v245l737 285l-737 283v247l1024 -417v-226zM1188 0h-1024v248h1024v-248z" />
    <glyph glyph-name="lozenge" unicode="&#x25ca;" horiz-adv-x="1480" 
d="M903 -395h-323l-353 934l353 931h323l348 -931zM512 539l221 -617l217 617l-217 614z" />
    <glyph glyph-name="zero.case" horiz-adv-x="1370" 
d="M1266 731q0 -363 -149.5 -558.5t-430.5 -195.5q-282 0 -431 195t-149 559q0 365 150.5 561.5t429.5 196.5q277 0 428.5 -197t151.5 -561zM397 731q0 -245 73.5 -372.5t215.5 -127.5q140 0 214.5 128t74.5 372q0 246 -74.5 376t-214.5 130t-214.5 -130t-74.5 -376z" />
    <glyph glyph-name="one.case" horiz-adv-x="755" 
d="M616 0h-282v1223h-291v245h573v-1468z" />
    <glyph glyph-name="two.case" horiz-adv-x="1198" 
d="M1128 254v-254h-1036v162l467 467q58 58 88 89.5t67 75.5t54 76t29 71.5t12 80.5q0 92 -64.5 153.5t-175.5 61.5q-113 0 -178 -63.5t-65 -178.5h-277q0 218 153 356t388 138q118 0 217 -35.5t163 -95.5t99 -136.5t35 -160.5q0 -141 -72.5 -255.5t-255.5 -293.5l-250 -258
h602z" />
    <glyph glyph-name="three.case" horiz-adv-x="1296" 
d="M1202 432q0 -202 -158 -327t-413 -125q-242 0 -397.5 125.5t-155.5 322.5h274q7 -104 83.5 -163.5t199.5 -59.5q129 0 202.5 58.5t73.5 160.5t-84 158.5t-231 56.5h-162v225h148q120 0 190 54.5t70 148.5q0 91 -62 144t-166 53q-105 0 -166 -58t-63 -157h-276
q3 189 151.5 314.5t368.5 125.5q230 0 367 -112.5t137 -289.5q0 -202 -228 -317q140 -43 218.5 -130.5t78.5 -207.5z" />
    <glyph glyph-name="four.case" horiz-adv-x="1308" 
d="M1239 297h-213v-297h-281v297h-727v209l785 962h223v-925h213v-246zM332 543h413v520z" />
    <glyph glyph-name="five.case" horiz-adv-x="1298" 
d="M1208 477q0 -97 -37 -185.5t-106 -159.5t-179 -113t-245 -42q-155 0 -282 59.5t-201.5 166t-79.5 239.5h282q13 -99 88.5 -155t190.5 -56q138 0 207 70.5t69 175.5q0 100 -73.5 172t-208.5 72q-197 0 -273 -150l-231 74l135 823h854v-254h-649l-53 -325q116 74 264 74
q128 0 230.5 -41t166.5 -109.5t97.5 -154.5t33.5 -181z" />
    <glyph glyph-name="six.case" horiz-adv-x="1288" 
d="M1223 485q0 -213 -164 -358t-416 -145q-124 0 -232 39t-182.5 105t-117.5 155t-43 186q0 133 44.5 235t153.5 228l459 538h322l-439 -518q170 22 311.5 -31.5t222.5 -168t81 -265.5zM362 477q0 -119 81.5 -188.5t203.5 -69.5q120 0 200.5 69t80.5 187q0 125 -80 194.5
t-201 69.5q-125 0 -205 -66.5t-80 -195.5z" />
    <glyph glyph-name="seven.case" horiz-adv-x="1112" 
d="M1081 1303l-573 -1303h-303l561 1214h-739v254h1054v-165z" />
    <glyph glyph-name="eight.case" horiz-adv-x="1341" 
d="M1247 422q0 -195 -159 -318.5t-414 -123.5q-259 0 -419.5 123.5t-160.5 318.5q0 119 71.5 205.5t192.5 136.5q-97 48 -154 126.5t-57 180.5q0 182 147.5 300t379.5 118q228 0 374 -118t146 -300q0 -101 -57 -179.5t-152 -127.5q120 -50 191 -136.5t71 -205.5zM440 1061
q0 -87 64 -139t170 -52q104 0 165.5 51.5t61.5 139.5q0 94 -61.5 148.5t-165.5 54.5q-106 0 -170 -55t-64 -148zM387 428q0 -104 77 -163.5t210 -59.5q128 0 206 60t78 163q0 99 -78.5 158t-205.5 59q-132 0 -209.5 -58.5t-77.5 -158.5z" />
    <glyph glyph-name="nine.case" horiz-adv-x="1288" 
d="M1022 539l-459 -535h-319l436 518q-169 -23 -310 30t-221.5 167.5t-80.5 265.5q0 140 72.5 254.5t206 182t300.5 67.5q164 0 297 -66.5t206 -178t73 -243.5t-45.5 -233t-155.5 -229zM360 993q0 -123 80.5 -192.5t202.5 -69.5q123 0 204 67.5t81 194.5q0 119 -82.5 188.5
t-202.5 69.5q-121 0 -202 -69.5t-81 -188.5z" />
    <glyph glyph-name="zero.dnom" horiz-adv-x="835" 
d="M774 414q0 -204 -92.5 -315t-263.5 -111q-173 0 -265 110.5t-92 315.5q0 207 93 318.5t264 111.5t263.5 -111.5t92.5 -318.5zM254 414q0 -126 42 -192t122 -66t122 66t42 192q0 127 -42 194.5t-122 67.5q-78 0 -121 -68t-43 -194z" />
    <glyph glyph-name="one.dnom" horiz-adv-x="509" 
d="M389 0h-190v668h-172v163h362v-831z" />
    <glyph glyph-name="two.dnom" horiz-adv-x="731" 
d="M694 168v-168h-643l2 106l279 252q85 76 118 118t33 93q0 44 -37 75.5t-98 31.5q-67 0 -104 -32t-37 -91h-182q0 129 94 210t241 81q145 0 232.5 -75t87.5 -175q0 -79 -45.5 -143t-161.5 -166l-123 -117h344z" />
    <glyph glyph-name="three.dnom" horiz-adv-x="804" 
d="M754 250q0 -117 -98 -188.5t-255 -71.5q-149 0 -244.5 72t-95.5 186h183q4 -52 46.5 -80.5t112.5 -28.5q73 0 114.5 28t41.5 79q0 49 -47.5 76.5t-132.5 27.5h-100v150h90q69 0 109 26t40 72q0 44 -34 70t-93 26t-93 -29t-36 -77h-182q2 108 93.5 182t225.5 74
q143 0 228.5 -64.5t85.5 -167.5q0 -108 -129 -176q81 -25 125.5 -73t44.5 -113z" />
    <glyph glyph-name="four.dnom" horiz-adv-x="798" 
d="M760 158h-129v-158h-189v158h-436v139l475 534h150v-509h129v-164zM223 322h219v251z" />
    <glyph glyph-name="five.dnom" horiz-adv-x="794" 
d="M741 272q0 -114 -92 -199t-256 -85q-147 0 -245.5 76t-102.5 194h188q7 -50 49.5 -76t110.5 -26q77 0 116.5 35t39.5 83q0 47 -41.5 83t-120.5 36q-116 0 -158 -80l-153 52l82 466h530v-167h-397l-27 -148q68 39 154 39q79 0 142.5 -24t102 -64.5t58.5 -90.5t20 -104z
" />
    <glyph glyph-name="six.dnom" horiz-adv-x="782" 
d="M745 279q0 -122 -100 -205.5t-256 -83.5q-152 0 -253 81.5t-101 194.5q0 76 27 134.5t94 131.5l276 299h213l-262 -288q41 5 86 2q125 -15 200.5 -87.5t75.5 -178.5zM231 272q0 -59 46.5 -90.5t115.5 -31.5q68 0 113 31.5t45 90.5q0 62 -45 94.5t-113 32.5
q-70 0 -116 -31.5t-46 -95.5z" />
    <glyph glyph-name="seven.dnom" horiz-adv-x="677" 
d="M662 721l-343 -721h-200l330 664h-435v167h648v-110z" />
    <glyph glyph-name="eight.dnom" horiz-adv-x="811" 
d="M760 244q0 -111 -98 -182.5t-256 -71.5t-256.5 71.5t-98.5 182.5q0 63 41 111t111 77q-121 60 -121 170q0 104 90.5 173t233.5 69q141 0 231 -69t90 -173q0 -106 -117 -170q150 -65 150 -188zM276 594q0 -41 35.5 -65.5t94.5 -24.5q60 0 94.5 24.5t34.5 65.5
q0 47 -34.5 73.5t-94.5 26.5q-59 0 -94.5 -26.5t-35.5 -73.5zM246 248q0 -51 43 -80t117 -29t117.5 29t43.5 80q0 48 -44 77t-117 29t-116.5 -29t-43.5 -77z" />
    <glyph glyph-name="nine.dnom" horiz-adv-x="782" 
d="M627 301l-277 -299h-213l262 287q-46 -3 -86 0q-125 15 -200.5 87.5t-75.5 178.5q0 27 4 41q15 108 112 178t240 70q152 0 253.5 -82t101.5 -195q0 -76 -27 -134.5t-94 -131.5zM231 561q0 -63 44.5 -95t113.5 -32q70 0 116 31.5t46 95.5q0 59 -46.5 91t-115.5 32
q-68 0 -113 -32t-45 -91z" />
    <glyph glyph-name="zero.numr_alt" horiz-adv-x="974" 
d="M936 967q0 -117 -58 -215.5t-161.5 -156.5t-229.5 -58q-190 0 -319 125.5t-129 304.5q0 180 128.5 305t319.5 125q192 0 320.5 -125t128.5 -305zM270 967q0 -109 62.5 -169.5t154.5 -60.5q93 0 155.5 60.5t62.5 169.5t-62.5 169t-155.5 60q-92 0 -154.5 -60t-62.5 -169z
" />
    <glyph glyph-name="zero.numr" horiz-adv-x="835" 
d="M774 967q0 -204 -92.5 -315t-263.5 -111q-173 0 -265 110.5t-92 315.5q0 207 93 318.5t264 111.5t263.5 -111.5t92.5 -318.5zM254 967q0 -126 42 -192t122 -66t122 66t42 192q0 127 -42 194.5t-122 67.5q-78 0 -121 -68t-43 -194z" />
    <glyph glyph-name="one.numr" horiz-adv-x="509" 
d="M389 553h-190v668h-172v163h362v-831z" />
    <glyph glyph-name="two.numr" horiz-adv-x="731" 
d="M694 721v-168h-643l2 106l279 252q85 76 118 118t33 93q0 44 -37 75.5t-98 31.5q-67 0 -104 -32t-37 -91h-182q0 129 94 210t241 81q145 0 232.5 -75t87.5 -175q0 -79 -45.5 -143t-161.5 -166l-123 -117h344z" />
    <glyph glyph-name="three.numr" horiz-adv-x="815" 
d="M754 803q0 -117 -98 -188.5t-255 -71.5q-149 0 -244.5 72t-95.5 186h183q4 -52 46.5 -80.5t112.5 -28.5q73 0 114.5 28t41.5 79q0 49 -47.5 76.5t-132.5 27.5h-100v150h90q69 0 109 26t40 72q0 44 -34 70t-93 26t-93 -29t-36 -77h-182q2 108 93.5 182t225.5 74
q143 0 228.5 -64.5t85.5 -167.5q0 -108 -129 -176q81 -25 125.5 -73t44.5 -113z" />
    <glyph glyph-name="four.numr" horiz-adv-x="798" 
d="M760 711h-129v-158h-189v158h-436v139l475 534h150v-510h129v-163zM223 874h219v252z" />
    <glyph glyph-name="five.numr" horiz-adv-x="794" 
d="M741 825q0 -114 -92 -199t-256 -85q-147 0 -245.5 76t-102.5 194h188q7 -50 49.5 -76t110.5 -26q77 0 116.5 35t39.5 83q0 47 -41.5 83t-120.5 36q-116 0 -158 -80l-153 52l82 466h530v-167h-397l-27 -148q68 39 154 39q79 0 142.5 -24t102 -64.5t58.5 -90.5t20 -104z
" />
    <glyph glyph-name="six.numr" horiz-adv-x="782" 
d="M745 831q0 -122 -100 -205t-256 -83q-152 0 -253 81.5t-101 194.5q0 76 27 134.5t94 131.5l276 299h213l-262 -288q41 5 86 2q125 -15 200.5 -88t75.5 -179zM231 825q0 -59 46.5 -91t115.5 -32q68 0 113 32t45 91q0 62 -45 94.5t-113 32.5q-70 0 -116 -31.5t-46 -95.5z
" />
    <glyph glyph-name="seven.numr" horiz-adv-x="677" 
d="M662 1274l-343 -721h-200l330 664h-435v167h648v-110z" />
    <glyph glyph-name="eight.numr" horiz-adv-x="811" 
d="M760 797q0 -111 -98 -182.5t-256 -71.5t-256.5 71.5t-98.5 182.5q0 63 41 111t111 77q-121 61 -121 170q0 104 90.5 173t233.5 69q141 0 231 -69t90 -173q0 -106 -117 -170q150 -65 150 -188zM276 1147q0 -41 35.5 -65.5t94.5 -24.5q60 0 94.5 24.5t34.5 65.5
q0 47 -34.5 73.5t-94.5 26.5q-59 0 -94.5 -26.5t-35.5 -73.5zM246 801q0 -51 43 -80t117 -29t117.5 29t43.5 80q0 48 -44 77t-117 29t-116.5 -29t-43.5 -77z" />
    <glyph glyph-name="nine.numr" horiz-adv-x="782" 
d="M627 854l-277 -299h-213l262 287q-46 -3 -86 0q-125 15 -200.5 87.5t-75.5 178.5q0 27 4 41q15 108 112 178t240 70q152 0 253.5 -82t101.5 -195q0 -76 -27 -134.5t-94 -131.5zM231 1114q0 -63 44.5 -95t113.5 -32q70 0 116 31.5t46 95.5q0 59 -46.5 91t-115.5 32
q-68 0 -113 -32t-45 -91z" />
    <glyph glyph-name="caroncomb.alt" horiz-adv-x="327" 
d="M256 1155h-186v315h235z" />
    <glyph glyph-name="caroncomb.alt2" horiz-adv-x="356" 
d="M254 1075h-186v395h235z" />
    <glyph glyph-name="strokeshortcomb.case" 
d="M-201 631h-846v252h846v-252z" />
    <glyph glyph-name="slashshortcomb.case" 
d="M-211 743l-911 -225v250l911 221v-246z" />
    <glyph glyph-name="slashlongcomb.case" 
d="M-1055 0h-278l1143 1470h278z" />
    <glyph glyph-name="dieresiscomb.narrow" 
d="M-178 1329q0 -76 -49.5 -125t-124.5 -49q-79 0 -129.5 48.5t-50.5 125.5t50.5 125.5t129.5 48.5q75 0 124.5 -49t49.5 -125zM-621 1329q0 -77 -49.5 -125.5t-128.5 -48.5q-76 0 -126 49t-50 125t50 125t126 49q79 0 128.5 -48.5t49.5 -125.5z" />
    <glyph glyph-name="gravecomb.narrow" 
d="M-481 1157h-297l-215 313h329z" />
    <glyph glyph-name="acutecomb.narrow" 
d="M-471 1157h-295l184 313h328z" />
    <glyph glyph-name="circumflexcomb.narrow" 
d="M-745 1157h-314l256 313h361l252 -313h-312l-121 162z" />
    <glyph glyph-name="ITF" horiz-adv-x="3405" 
d="M147 0v1434h443v-1434h-443zM682 1016v418h442v-418h-442zM1214 0v1434h445v-1434h-445zM1749 1016v418h442v-418h-442zM2281 0v1434h445v-1434h-445zM2816 1016v418h442v-418h-442zM2816 506v420h442v-420h-442z" />
    </font>
</defs>
</svg>
